/* XPM */
static char * chao6464_xpm[] = {
"64 64 103 2",
"  	c #AE8759",
". 	c #AF8759",
"+ 	c #AF8659",
"@ 	c #AF875A",
"# 	c #AE8659",
"$ 	c #AE8658",
"% 	c #AD8658",
"& 	c #BC9160",
"* 	c #BD9261",
"= 	c #BB9061",
"- 	c #BB9060",
"; 	c #BB9160",
"> 	c #BA9060",
", 	c #B98F5F",
"' 	c #BC9060",
") 	c #B98F60",
"! 	c #BA905F",
"~ 	c #BB905F",
"{ 	c #BA8F60",
"] 	c #BA8F5F",
"^ 	c #B98F5E",
"/ 	c #B98E5F",
"( 	c #B88E5F",
"_ 	c #B88E5E",
": 	c #B88F5E",
"< 	c #B88F5F",
"[ 	c #B78D5E",
"} 	c #B68E5E",
"| 	c #B78E5E",
"1 	c #C69966",
"2 	c #C69967",
"3 	c #C69A67",
"4 	c #C59966",
"5 	c #C59866",
"6 	c #C69866",
"7 	c #C79A67",
"8 	c #C19564",
"9 	c #B78D5D",
"0 	c #B1885B",
"a 	c #C09463",
"b 	c #B38A5C",
"c 	c #C39765",
"d 	c #BF9462",
"e 	c #B0885A",
"f 	c #B58C5D",
"g 	c #C29764",
"h 	c #C49865",
"i 	c #B48B5C",
"j 	c #BE9362",
"k 	c #C19664",
"l 	c #B48A5C",
"m 	c #C49765",
"n 	c #C09563",
"o 	c #C39764",
"p 	c #B28A5B",
"q 	c #BC9161",
"r 	c #B68C5D",
"s 	c #B0875A",
"t 	c #B9905F",
"u 	c #B2895B",
"v 	c #C39664",
"w 	c #BD9361",
"x 	c #B1895B",
"y 	c #BE9261",
"z 	c #B68C5E",
"A 	c #AE8559",
"B 	c #B0885B",
"C 	c #C29664",
"D 	c #B08759",
"E 	c #C29665",
"F 	c #C59865",
"G 	c #BF9463",
"H 	c #BC9261",
"I 	c #B58B5D",
"J 	c #C39665",
"K 	c #B2895C",
"L 	c #C49866",
"M 	c #C19563",
"N 	c #BD9262",
"O 	c #AE8558",
"P 	c #B68D5E",
"Q 	c #B1885A",
"R 	c #BF9362",
"S 	c #B1895A",
"T 	c #B48B5D",
"U 	c #B68D5D",
"V 	c #B38A5B",
"W 	c #C29765",
"X 	c #BF9363",
"Y 	c #BD9362",
"Z 	c #C19663",
"` 	c #AD8558",
" .	c #AD8559",
"..	c #B2895A",
"+.	c #B08859",
"@.	c #BB9161",
"#.	c #B0875B",
"$.	c #BE9262",
"%.	c #B28A5C",
"&.	c #B38B5C",
"*.	c #B38B5B",
"=.	c #B58C5C",
"-.	c #B58B5C",
"  . + @ . . . # . . + . # . # . . + . # # + + @ $ + # + . + + + # . + . # # + # . # # # # + # # # % # # + # # + # # # # # $ # # ",
"& * = - & ; & = ; & > & - & ; , - - ' - ) - ! ~ - { > , ! > ] - ^ , , , { , { , , , / ] / ( / _ , : ( < [ ( : , , } ( | _ _ | ( ",
"1 1 1 1 2 1 1 1 1 3 1 1 1 1 1 1 1 1 1 1 1 1 1 4 1 4 1 1 1 1 5 1 4 1 1 5 1 4 5 1 4 1 5 5 4 5 1 6 5 1 5 4 5 5 4 5 4 5 5 1 5 5 5 5 ",
"7 7 7 7 7 7 7 7 7 7 7 7 7 7 7 7 7 7 7 7 7 7 7 7 7 7 7 7 7 7 7 7 7 7 7 7 7 7 7 7 7 7 7 7 7 7 7 7 7 7 7 7 7 7 7 7 7 7 7 7 7 7 7 7 ",
"7 7 7 7 7 7 7 7 7 7 7 7 7 7 7 7 7 7 7 7 7 7 7 7 7 7 7 7 7 7 7 5 8 2 7 7 7 7 7 7 7 7 7 7 7 7 7 7 7 7 7 7 7 7 7 7 7 7 7 7 7 7 7 7 ",
"7 7 7 7 7 7 7 7 7 7 7 7 7 7 7 7 7 7 7 7 7 7 7 7 7 7 7 7 7 7 1 9 0 a 7 7 7 7 7 7 7 7 7 7 7 7 7 7 7 7 7 7 7 7 7 7 7 7 7 7 7 7 7 7 ",
"7 7 7 7 7 7 7 7 7 7 7 7 7 7 7 7 7 7 7 7 7 7 7 7 7 7 7 7 7 1 - + # b c 7 7 7 7 7 7 7 7 7 7 7 7 7 7 7 7 7 7 7 7 7 7 7 7 7 7 7 7 7 ",
"7 7 7 7 7 7 7 7 7 7 7 7 7 7 7 7 7 7 7 7 7 7 7 7 7 7 7 7 1 d e # # # f 5 7 7 7 7 7 7 7 7 7 7 7 7 7 7 7 7 7 7 7 7 7 7 7 7 7 7 7 7 ",
"7 7 7 7 7 7 7 7 7 7 7 7 7 7 7 7 7 7 7 7 7 7 7 7 7 7 7 7 g 0 # # # # # , 1 7 7 7 7 7 7 7 7 7 7 7 7 7 7 7 7 7 7 7 7 7 7 7 7 7 7 7 ",
"7 7 7 7 7 7 7 7 7 7 7 7 7 7 7 7 7 7 7 7 7 7 7 7 7 7 7 h i # # # # # # @ j 7 7 7 7 7 7 7 7 7 7 7 7 7 7 7 7 7 7 7 7 7 7 7 7 7 7 7 ",
"7 7 7 7 7 7 7 7 7 7 7 7 7 7 7 7 7 7 7 7 7 7 7 7 7 7 4 / # # # # # # # # 0 k 7 7 7 7 7 7 7 7 7 7 7 7 7 7 7 7 7 7 7 7 7 7 7 7 7 7 ",
"7 7 7 7 7 7 7 7 7 7 7 7 7 7 7 7 7 7 7 7 7 7 7 7 7 2 * + # # # # # # # # # l m 7 7 7 7 7 7 7 7 7 7 7 7 7 7 7 7 7 7 7 7 7 7 7 7 7 ",
"7 7 7 7 7 7 7 7 7 7 7 7 7 7 7 7 7 7 7 7 7 7 7 7 7 n @ # # # # # # # # # # # _ 1 7 7 7 7 7 7 7 7 7 7 7 7 7 7 7 7 7 7 7 7 7 7 7 7 ",
"7 7 7 7 7 7 7 7 7 7 7 7 7 7 7 7 7 7 7 7 7 7 7 7 o p # # # # # # # # # # # # # q 1 7 7 7 7 7 7 7 7 7 7 7 7 7 7 7 7 7 7 7 7 7 7 7 ",
"7 7 7 7 7 7 7 7 7 7 7 7 7 7 7 7 7 7 7 7 7 7 7 5 r # # # # # # # # # # # # # # s j 2 7 7 7 7 7 7 7 7 7 7 7 7 7 7 7 7 7 7 7 7 7 7 ",
"7 7 7 7 7 7 7 7 7 7 7 7 7 7 7 7 7 7 7 7 7 7 2 t # # # # # # # # # # # # # # # # u v 7 7 7 7 7 7 7 7 7 7 7 7 7 7 7 7 7 7 7 7 7 7 ",
"7 7 7 7 7 7 7 7 7 7 7 7 7 7 7 7 7 7 7 7 7 7 w . # # # # # # # # # # # # # # # # # f 5 7 7 7 7 7 7 7 7 7 7 7 7 7 7 7 7 7 7 7 7 7 ",
"7 7 7 7 7 7 7 7 7 7 7 7 7 7 7 7 7 7 7 7 3 8 x # # # # # # # # # # # # # # # # # # # , 1 7 7 7 7 7 7 7 7 7 7 7 7 7 7 7 7 7 7 7 7 ",
"7 7 7 7 7 7 7 7 7 7 7 7 7 7 7 7 7 7 7 7 c b $ # # # # # # # # # # # # # # # # # # # s y 2 7 7 7 7 7 7 7 7 7 7 7 7 7 7 7 7 7 7 7 ",
"7 7 7 7 7 7 7 7 7 7 7 7 7 7 7 7 7 7 7 1 z A # # # # # # # # # # # # # # # # # # # # # B C 7 7 7 7 7 7 7 7 7 7 7 7 7 7 7 7 7 7 7 ",
"7 7 7 7 7 7 7 7 7 7 7 7 7 7 7 7 7 7 1 - + # # # # # # # # # # # # # # # # # # # # # # # b h 7 7 7 7 7 7 7 7 7 7 7 7 7 7 7 7 7 7 ",
"7 7 7 7 7 7 7 7 7 7 7 7 7 7 7 7 7 3 j D # # # # # # # # # # # # # # # # # # # # # # # # # | 4 7 7 7 7 7 7 7 7 7 7 7 7 7 7 7 7 7 ",
"7 7 7 7 7 7 7 7 7 7 7 7 7 7 7 7 7 E x # # # # # # # # # # # # # # # # # # # # # # # # # # + q 1 7 7 7 7 7 7 7 7 7 7 7 7 7 7 7 7 ",
"7 7 7 7 7 7 7 7 7 7 7 7 7 7 7 7 F i # # # # # # # # # # # # # # # # # # # # # # # # # # # # . G 7 7 7 7 7 7 7 7 7 7 7 7 7 7 7 7 ",
"7 7 7 7 7 7 7 7 7 7 7 7 7 7 7 4 _ # # # # # # # # # # # # # # # # # # # # # # # # # # # # # # u o 7 7 7 7 7 7 7 7 7 7 7 7 7 7 7 ",
"7 7 7 7 7 7 7 7 7 7 7 7 7 7 1 H + # # # # # # # # # # # # # # # # # # # # # # # # # # # # # # # I h 7 7 7 7 7 7 7 7 7 7 7 7 7 7 ",
"7 7 7 7 7 7 7 7 7 7 7 7 7 7 a . # # # # # # # # # # # # # # # # # # # # # # # # # # # # # # # # # ] 1 7 7 7 7 7 7 7 7 7 7 7 7 7 ",
"7 7 7 7 7 7 7 7 7 7 7 7 7 J K # # # # # # # # # # # # # # # # # # # # # # # # # # # # # # # # # # . * 7 7 7 7 7 7 7 7 7 7 7 7 7 ",
"7 7 7 7 7 7 7 7 7 7 7 7 L r # # # # # # # # # # # # # # # # # # # # # # # # # # # # # # # # # # # # 0 M 7 7 7 7 7 7 7 7 7 7 7 7 ",
"7 7 7 7 7 7 7 7 7 7 7 1 ) # # # # # # # # # # # # # # # # # # # # # # # # # # # # # # # # # # # # # # l m 7 7 7 7 7 7 7 7 7 7 7 ",
"7 7 7 7 7 7 7 7 7 7 7 N + # # # # # # # # # # # # # # # # # # O $ # # # # # # # # # # # # # # # # # # # P 1 7 7 7 7 7 7 7 7 7 7 ",
"7 7 7 7 7 7 7 7 7 3 n Q # # # # # # # # # # # # # # # # # # # i 9 # # # # # # # # # # # # # # # # # # # + - 1 7 7 7 7 7 7 7 7 7 ",
"7 7 7 7 7 7 7 7 7 c l # # # # # # # # # # # # # # # # # # # u k m f # # # # # # # # # # # # # # # # # # # s R 7 7 7 7 7 7 7 7 7 ",
"7 7 7 7 7 7 7 7 4 9 # # # # # # # # # # # # # # # # # # # @ j 7 7 8 S # # # # # # # # # # # # # # # # # # # u C 7 7 7 7 7 7 7 7 ",
"7 7 7 7 7 7 7 1 > # # # # # # # # # # # # # # # # # # # # - 1 7 7 7 R . # # # # # # # # # # # # # # # # # # # T 5 7 7 7 7 7 7 7 ",
"7 7 7 7 7 7 3 j . # # # # # # # # # # # # # # # # # # # | 5 7 7 7 7 1 > # # # # # # # # # # # # # # # # # # # # , 1 7 7 7 7 7 7 ",
"7 7 7 7 7 7 C x # # # # # # # # # # # # # # # # # # # b c 7 7 7 7 7 7 F U # # # # # # # # # # # # # # # # # # # . * 1 7 7 7 7 7 ",
"7 7 7 7 7 L T # # # # # # # # # # # # # # # # # # # e 8 7 7 7 7 7 7 7 7 c p # # # # # # # # # # # # # # # # # # # e M 7 7 7 7 7 ",
"7 7 7 7 4 ( # # # # # # # # # # # # # # # # # # # . * 1 7 7 7 7 7 7 7 7 7 n Q # # # # # # # # # # # # # # # # # # # V m 7 7 7 7 ",
"7 7 7 1 q . # # # # # # # # # # # # # # # # # # # _ 4 7 7 7 7 7 7 7 7 7 7 1 * . # # # # # # # # # # # # # # # # # # # U 5 7 7 7 ",
"7 7 3 a s # # # # # # # # # # # # # # # # # # # I L 7 7 7 7 7 7 7 7 7 7 7 7 4 ( # # # # # # # # # # # # # # # # # # # # > 1 7 7 ",
"7 7 W V # # # # # # # # # # # # # # # # # # # x J 7 7 7 7 7 7 7 7 7 7 7 7 7 7 5 i # # # # # # # # # # # # # # # # # # # @ X 7 7 ",
"7 5 f # # # # # # # # # # # # # # # # # # # s d 3 7 7 7 7 7 7 7 7 7 7 7 7 7 7 7 C 0 # # # # # # # # # # # # # # # # # # # u C 7 ",
"1 ] # # # # # # # # # # # # # # # # # # # # ; 1 7 7 7 7 7 7 7 7 7 7 7 7 7 7 7 7 2 R s # # # # # # # # # # # # # # # # # # # i h ",
"* . # # # # # # # # # # # # # # # # # # # 9 1 7 7 7 7 7 7 7 7 7 7 7 7 7 7 7 7 7 7 2 - + # # # # # # # # # # # # # # # # # # # _ ",
"e # # # # # # # # # # # # # # # # # # # i h 7 7 7 7 7 7 7 7 7 7 7 7 7 7 7 7 7 7 7 7 4 | # # # # # # # # # # # # # # # # # # # # ",
"+ # # # # # # # # # # # # # # # # # # Q M 7 7 7 7 7 7 7 7 7 7 7 7 7 7 7 7 7 7 7 7 7 7 c V # # # # # # # # # # # # # # # # # # # ",
"r # # # # # # # # # # # # # # # # # . Y 7 7 7 7 7 7 7 7 7 7 7 7 7 7 7 7 7 7 7 7 7 7 7 7 Z e # # # # # # # # # # # # # # # # ` l ",
"c b  .# # # # # # # # # # # # # #  ., 1 7 7 7 7 7 7 7 7 7 7 7 7 7 7 7 7 7 7 7 7 7 7 7 7 1 * + # # # # # # # # # # # # # # # ..C ",
"7 a e # # # # # # # # # # # # # # f 5 7 7 7 7 7 7 7 7 7 7 7 7 7 7 7 7 7 7 7 7 7 7 7 7 7 7 1 < # # # # # # # # # # # # # # @ j 2 ",
"7 7 q . # # # # # # # # # # # # u o 7 7 7 7 7 7 7 7 7 7 7 7 7 7 7 7 7 7 7 7 7 7 7 7 7 7 7 7 5 f % # # # # # # # # # # # # ] 1 7 ",
"7 7 1 , # # # # # # # # # # # +.a 7 7 7 7 7 7 7 7 7 7 7 7 7 7 7 7 7 7 7 7 7 7 7 7 7 7 7 7 7 7 C p # # # # # # # # # # # U 5 7 7 ",
"7 7 7 h f # # # # # # # # # # & 3 7 7 7 7 7 7 7 7 7 7 7 7 7 7 7 7 7 7 7 7 7 7 7 7 7 7 7 7 7 7 7 a e # # # # # # # # # p c 7 7 7 ",
"7 7 7 7 k Q # # # # # # # $ | 1 7 7 7 7 7 7 7 7 7 7 7 7 7 7 7 7 7 7 7 7 7 7 7 7 7 7 7 7 7 7 7 7 2 @.# # # # # # # # s a 7 7 7 7 ",
"7 7 7 7 7 R . # # # # # # l h 7 7 7 7 7 7 7 7 7 7 7 7 7 7 7 7 7 7 7 7 7 7 7 7 7 7 7 7 7 7 7 7 7 7 4 _ A # # # # # # q 7 7 7 7 7 ",
"7 7 7 7 7 1 > # # # # # #.8 7 7 7 7 7 7 7 7 7 7 7 7 7 7 7 7 7 7 7 7 7 7 7 7 7 7 7 7 7 7 7 7 7 7 7 7 m l  .# # # # | 4 7 7 7 7 7 ",
"7 7 7 7 7 7 F U # # # # * 7 7 7 7 7 7 7 7 7 7 7 7 7 7 7 7 7 7 7 7 7 7 7 7 7 7 7 7 7 7 7 7 7 7 7 7 7 7 C Q # # # V c 7 7 7 7 7 7 ",
"7 7 7 7 7 7 7 c u # # ] 1 7 7 7 7 7 7 7 7 7 7 7 7 7 7 7 7 7 7 7 7 7 7 7 7 7 7 7 7 7 7 7 7 7 7 7 7 7 7 7 $.+ # s M 7 7 7 7 7 7 7 ",
"7 7 7 7 7 7 7 7 n e r F 7 7 7 7 7 7 7 7 7 7 7 7 7 7 7 7 7 7 7 7 7 7 7 7 7 7 7 7 7 7 7 7 7 7 7 7 7 7 7 7 1 > +.N 3 7 7 7 7 7 7 7 ",
"7 7 7 7 7 7 7 7 3 C m 7 7 7 7 7 7 7 7 7 7 7 7 7 7 7 7 7 7 7 7 7 7 7 7 7 7 7 7 7 7 7 7 7 7 7 7 7 7 7 7 7 7 5 C 1 7 7 7 7 7 7 7 7 ",
"7 7 7 7 7 7 7 7 7 7 7 7 7 7 7 7 7 7 7 7 7 7 7 7 7 7 7 7 7 7 7 7 7 7 7 7 7 7 7 7 7 7 7 7 7 7 7 7 7 7 7 7 7 7 7 7 7 7 7 7 7 7 7 7 ",
"C C 8 C C o c C g C v v C o k C v o m C o C J o C o g c c v m c o o J c c c c c m v m c o m c m c o m c h m c m c m c h h o m m ",
"b V b b K b V b i V i p b b b i %.&.b b i b l V b i i I l &.i b T b i &.b i i I i *.T &.f i i T b I I =.=.b i T f T &.=.i I f -.",
"# # # # # # # # # # # # # # # # # # # # # # # # # # # # # # # # # # # # # # # # # # # # # # # # # # # # # # # # # # # # # # # # "};
