/* XPM */
static char *Computador64x64[] = {
/* columns rows colors chars-per-pixel */
"64 64 189 2 ",
"   c None",
".  c #121312",
"X  c #13192D",
"o  c #101530",
"O  c #1B1D31",
"+  c #161C37",
"@  c #172132",
"#  c #1B2234",
"$  c #1D253B",
"%  c #1E293C",
"&  c #2B2C2B",
"*  c #222234",
"=  c #222539",
"-  c #232C3D",
";  c #27313F",
":  c #2D313D",
">  c #343635",
",  c #1C2941",
"<  c #242D41",
"1  c #282F40",
"2  c #273343",
"3  c #2B3444",
"4  c #2E3946",
"5  c #273648",
"6  c #2D3A49",
"7  c #2D374A",
"8  c #343946",
"9  c #343C4B",
"0  c #393E4A",
"q  c #2F3951",
"w  c #35424F",
"e  c #3A414D",
"r  c #364352",
"t  c #3B4553",
"y  c #3C4955",
"u  c #3E4B58",
"i  c #4B4D4D",
"p  c #454B55",
"a  c #424D5A",
"s  c #4A4E5C",
"d  c #45515D",
"f  c #4B535E",
"g  c #4C5561",
"h  c #4E5963",
"j  c #4E5C6A",
"k  c #525663",
"l  c #535B64",
"z  c #535C6A",
"x  c #5A5E6A",
"c  c #52606F",
"v  c #5A636B",
"b  c #5B6064",
"n  c #576270",
"m  c #5D6772",
"M  c #5F6A76",
"N  c #5E6C78",
"B  c #61676E",
"V  c #686D6E",
"C  c #636A72",
"Z  c #696E73",
"A  c #656B78",
"S  c #6A7277",
"D  c #6C747B",
"F  c #6C787F",
"G  c #66717A",
"H  c #717477",
"J  c #70767C",
"K  c #747B7F",
"L  c #6C7581",
"P  c #757D82",
"I  c #797E84",
"U  c #767F8B",
"Y  c #6E808D",
"T  c #768285",
"R  c #7B8384",
"E  c #7E858A",
"W  c #7F898E",
"Q  c #77848B",
"!  c #7E8D95",
"~  c #818686",
"^  c #84898C",
"/  c #8A8D8D",
"(  c #84878A",
")  c #83918F",
"_  c #848C92",
"`  c #898F96",
"'  c #8B9294",
"]  c #85959C",
"[  c #8C969A",
"{  c #86989B",
"}  c #889699",
"|  c #939595",
" . c #959897",
".. c #93979A",
"X. c #949B9C",
"o. c #9A9E9D",
"O. c #9AA19E",
"+. c #879AA0",
"@. c #8C9DA1",
"#. c #949DA2",
"$. c #989DA1",
"%. c #96A0A2",
"&. c #9DA3A2",
"*. c #95A4AA",
"=. c #9FA7AB",
"-. c #9DA9AA",
";. c #9BACB2",
":. c #9DB5B8",
">. c #A1A5A4",
",. c #A2A9A4",
"<. c #A1A7AC",
"1. c #A3AAAB",
"2. c #AAAEAC",
"3. c #AAB2AE",
"4. c #A4ACB0",
"5. c #ABAFB4",
"6. c #A5B3B3",
"7. c #ADB3B4",
"8. c #A9B4B8",
"9. c #A9B8B9",
"0. c #B0B5B6",
"q. c #B4BAB5",
"w. c #B8BDB7",
"e. c #B1B7B8",
"r. c #B4BCBD",
"t. c #B8BFBA",
"y. c #BCC2BE",
"u. c #C1C6BF",
"i. c #B6BCC0",
"p. c #B6C0C0",
"a. c #BEC3C2",
"s. c #BBC8C5",
"d. c #C2C6C3",
"f. c #C4CAC5",
"g. c #C9CEC6",
"h. c #C0C6CA",
"j. c #C5CDCA",
"k. c #CACCCA",
"l. c #CBD1C7",
"z. c #CDD2CB",
"x. c #D1D6CC",
"c. c #D5DACE",
"v. c #DCDFCE",
"b. c #C9CED1",
"n. c #CED3D2",
"m. c #CFD8D6",
"M. c #D1D6D2",
"N. c #D5DAD2",
"B. c #D9DED4",
"V. c #D3D6D9",
"C. c #D6DBD8",
"Z. c #D9DCDA",
"A. c #DCE1D5",
"S. c #DDE2D9",
"D. c #E2E5DB",
"F. c #E6E8DD",
"G. c #EAECDE",
"H. c #E3E7E1",
"J. c #E7EBE0",
"K. c #EBEEE3",
"L. c #EFF1E6",
"P. c #EDF1EA",
"I. c #F1F4E7",
"U. c #F3F5EA",
"Y. c #F6F9EA",
"T. c #F7F9ED",
"R. c #F7F9EC",
"E. c #F8FBEB",
"W. c #F8FAE9",
"Q. c #F9FBED",
"!. c #FAFDED",
"~. c #FAFCEC",
"^. c #FAFDEE",
"/. c #FBFDEE",
"(. c #FAFCEF",
"). c #FBFEEF",
"_. c #FBFEEE",
"`. c #F9FCED",
"'. c #FCFEEE",
"]. c #FCFEEF",
"[. c #FCFFEF",
"{. c #FCFEED",
"}. c #F9FBEE",
"|. c #FBFDF1",
" X c #FCFEF0",
".X c #FDFEF1",
"XX c #FCFDF1",
"oX c #FBFDF1",
"OX c #FEFEF8",
/* pixels */
"                                                                                                                                ",
"                                                                                                                                ",
"                                                                                                                                ",
"                                                                                                                                ",
"                                                                                                                                ",
"                                                                                                                                ",
"                                                                                                                                ",
"                                                                                                                                ",
"                                                                                                                                ",
"                                                                                                                                ",
"                                                              h U #                                                             ",
"                                                          # &.(.(.D.f                                                           ",
"                                                        p N.(.(.(.(.Y.#.*                                                       ",
"                                                    O ^ U.(.(.(.(.(.(.(.B.h                                                     ",
"                                                  0 g.(.(.(.(.(.(.(.(.(.(.(.o.O                                                 ",
"                                              o E U.(.(.(.(.(.(.(.(.(.(.(.(.(.N.f                                               ",
"                                          p d.t.<.U.(.(.(.(.(.(.(.(.(.(.(.(.(.(.Y.$.O                                           ",
"                                        x U.(.(.I.4.g.(.Y.(.(.(.(.(.(.(.Y.(.(.(.(.(.N.h                                         ",
"                                        4.F.(.(.(.(.N.&.I.(.(.(.(.(.(.Y.(.(.(.(.(.(.(.Y.o.=                                     ",
"                                        5.c.c.L.(.(.(.Y.0.a.(.(.(.Y.(.(.(.(.(.(.(.(.(.(.(.B.l                                   ",
"                                        7.B.2.l.A.(.(.(.(.B.<.K.U.(.(.(.(.(.(.(.(.(.(.(.(.(.(.<.*                               ",
"                                        0.A.f p q.x.K. X(.(.(.r.a.(.(.(.(.(.(.(.(.(.(.(.(.(.(.B.8                               ",
"                                        0.D.f p f E z.B.Y. X X(.S.=.D.(.(.(.(.(.(.Y.(. X(.K.u.>.0                               ",
"                                        0.D.f f N.z.l 3.z.F. X(.(.(.a.7.(. X X(.(. X(.Y.N.7.O.&.0                               ",
"                                        0.D.f f r.OX&.0 C f.N.U. X(.(.K.<.B.Y. X X XG.y.&.O.O.&.8                               ",
"                                        7.D.f v _ ^ C h p 0 X.z.D.(.(.(.(.d.<.Y.(.N.2.o.o.O.O.O.8                               ",
"                                        7.D.h p l l l h h h p l y.x.L. X(.(.L.` y.<.i > O.O.&.O.8                               ",
"                                        7.A.h p h h h h h d v f 3 T f.A.(. XK.^ ~ & i . T &.&.O.8                               ",
"                                        7.S.k e h h h f f d f v h 0 r q.x.J.7.K ^ . > ^ &.O.T >.8                               ",
"                                        7.S.l 0 d f d d d d p l h d u p N.N.<.I ^ ^ &.&._ I T >.8                               ",
"                                        7.B.x 6 r d p u p p u p l f p h A.B.,.I ' >.&.I T x I >.8                               ",
"                                        2.c.N.J - r y y y y y y h f p h A.B.>.K ^ ' K C v F F >.8                               ",
"                                        } x.S.(.u.0 4 w r r r r r h p h A.A.>.K ^ T j K v T F o.0                               ",
"                                        * ^ z.x.K.U.E - 0 0 w 0 0 p u h A.A.<.I ' I C F S I T &.0                               ",
"                                      +     0 2.z.B.Y.x.s - 6 6 6 6 u h A.A.<.I ' K T v K F w.^ :                               ",
"                                    _ P.k.k e = B f.z.D.Y.>.- 2 3 6 r h A.A.<.I | L G v O.3.T | 0                               ",
"                                r g.f.V.M.(.$.0 3 3 X.k.N.L.F.C % 2 5 h A.A.>.I ..I F q._ ^ V o.8                               ",
"                              F A.j.! -.h.y.U.Z.x F x l r.z.A.Y.y.0 , h A.B.>.I X.X.2.E | H f o.8                               ",
"                            2.c.' j.%.#.6.*.M.j. X7.A I q I f.z.J.U._ h B.B.>.I X.E ^ Z ' C h _ #                               ",
"                        $ V.N.6.n.E } r.=.] @.b.e.L.K._ I n u <.J 3.U.A.c.N.>.I I o.b B } C h X                                 ",
"                        r S.(.7.h S.X.I j.} -.;.;.N.q. Xd.L _ p h ,.c y.l.N.>.I o.>.l Z E -                                     ",
"                        X ' q.U.K._ %.K.&.] 9.7.{ +.Z.<.P.U.} I L r I Y ' c.>.Z | >.l b X                                       ",
"                          $ C O.x. Xa.M M.D.' s.] 8.@.8.n.a. Xg.F _ j h 3.f.I -  .X.3                                           ",
"                            , 0 _ 3.K.L.' ' M.%.@.*.i.{ E A.K.f. X4.L < < 3 @ 3 l #                                             ",
"                                $ l X.g.(.z.v j.#.-.:.! K.N.' D.&.U.C.p     ; $                                                 ",
"                                  $ < T <.D.Y.&.Q 4...Y.D.r.-.T a.n.H.Y.(                                                       ",
"                                      $ p } y.Y.S.g.v.z.r.} -.f.} W Z.P.4.                                                      ",
"                                        < - K &.B.(.G.W p.<.@.@._ K.M.#.m                                                       ",
"                                            % r ' q.L.U._ -._ a.J.q._ r                                                         ",
"                                                % m o.z.(.x.F.N.&.N #                                                           ",
"                                                  < 7 ^ 7.S.y.X.p                                                               ",
"                                                      $ h ' F -                                                                 ",
"                                                          # X                                                                   ",
"                                                                                                                                ",
"                                                                                                                                ",
"                                                                                                                                ",
"                                                                                                                                ",
"                                                                                                                                ",
"                                                                                                                                ",
"                                                                                                                                ",
"                                                                                                                                ",
"                                                                                                                                ",
"                                                                                                                                ",
"                                                                                                                                "
};
