/* XPM */
static char * Computador_com_fundo3)_xpm[] = {
"64 64 560 2",
"  	c #AE8759",
". 	c #AF8759",
"+ 	c #AF8659",
"@ 	c #AF875A",
"# 	c #AE8659",
"$ 	c #AE8658",
"% 	c #AD8658",
"& 	c #BC9160",
"* 	c #BD9261",
"= 	c #BB9061",
"- 	c #BB9060",
"; 	c #BB9160",
"> 	c #BA9060",
", 	c #B98F5F",
"' 	c #BC9060",
") 	c #B98F60",
"! 	c #BA905F",
"~ 	c #BB905F",
"{ 	c #BA8F60",
"] 	c #BA8F5F",
"^ 	c #B98F5E",
"/ 	c #B98E5F",
"( 	c #B88E5F",
"_ 	c #B88E5E",
": 	c #B88F5E",
"< 	c #B88F5F",
"[ 	c #B78D5E",
"} 	c #B68E5E",
"| 	c #B78E5E",
"1 	c #C69966",
"2 	c #C69967",
"3 	c #C69A67",
"4 	c #C59966",
"5 	c #C59866",
"6 	c #C69866",
"7 	c #C79A67",
"8 	c #C19564",
"9 	c #B78D5D",
"0 	c #B1885B",
"a 	c #C09463",
"b 	c #B38A5C",
"c 	c #C39765",
"d 	c #BF9462",
"e 	c #B0885A",
"f 	c #B58C5D",
"g 	c #C29764",
"h 	c #C49865",
"i 	c #B48B5C",
"j 	c #BE9362",
"k 	c #C19664",
"l 	c #B48A5C",
"m 	c #C49765",
"n 	c #C09563",
"o 	c #C39764",
"p 	c #B28A5B",
"q 	c #BC9161",
"r 	c #B68C5D",
"s 	c #B0875A",
"t 	c #B9905F",
"u 	c #B2895B",
"v 	c #C39664",
"w 	c #BD9361",
"x 	c #B1895B",
"y 	c #AD8559",
"z 	c #AD8659",
"A 	c #A68056",
"B 	c #9E7F5D",
"C 	c #9D805F",
"D 	c #A57F56",
"E 	c #9F7C55",
"F 	c #8D7B67",
"G 	c #ADAAA3",
"H 	c #B0AFA9",
"I 	c #8F7E6D",
"J 	c #9B7954",
"K 	c #AC8458",
"L 	c #AD8558",
"M 	c #BE9261",
"N 	c #B68C5E",
"O 	c #AE8559",
"P 	c #A88257",
"Q 	c #947756",
"R 	c #978D7F",
"S 	c #D0D0C9",
"T 	c #F5F6E9",
"U 	c #F6F8E9",
"V 	c #D7D7CE",
"W 	c #9C948B",
"X 	c #8C7259",
"Y 	c #B0885B",
"Z 	c #C29664",
"` 	c #A78156",
" .	c #A17E57",
"..	c #8D7962",
"+.	c #ABA89E",
"@.	c #E3E4DB",
"#.	c #F7F8EC",
"$.	c #F9FBEC",
"%.	c #F9FBEA",
"&.	c #F9FAED",
"*.	c #EDEEE4",
"=.	c #B7B5AD",
"-.	c #8B7B6A",
";.	c #9B7A56",
">.	c #AB8458",
",.	c #B08759",
"'.	c #A07E58",
").	c #8F7964",
"!.	c #807872",
"~.	c #BBBDB8",
"{.	c #FBFBEE",
"].	c #F9FBEB",
"^.	c #FAFCEB",
"/.	c #FAFCED",
"(.	c #F7F8EE",
"_.	c #D6D6CE",
":.	c #968D84",
"<.	c #94795C",
"[.	c #A57F55",
"}.	c #C29665",
"|.	c #A98359",
"1.	c #918376",
"2.	c #CCCDC8",
"3.	c #E0E2DB",
"4.	c #D4D7D1",
"5.	c #DADED5",
"6.	c #F1F3E7",
"7.	c #FBFCED",
"8.	c #F9FCED",
"9.	c #F9FCEC",
"0.	c #F8FAEB",
"a.	c #FCFDEF",
"b.	c #EDEEE3",
"c.	c #8B7C6B",
"d.	c #977654",
"e.	c #C59865",
"f.	c #A38059",
"g.	c #A7A39C",
"h.	c #E2E4D9",
"i.	c #F4F6E8",
"j.	c #F2F3EA",
"k.	c #DEE2D8",
"l.	c #D1D4CE",
"m.	c #E9ECE1",
"n.	c #F9FAEE",
"o.	c #F6F7EA",
"p.	c #9B948A",
"q.	c #8D7458",
"r.	c #BF9463",
"s.	c #ABA8A0",
"t.	c #BFC4BB",
"u.	c #BDC1BA",
"v.	c #E6EADF",
"w.	c #F8F9EC",
"x.	c #D1D5D0",
"y.	c #DDE0D9",
"z.	c #FBFDEE",
"A.	c #FAFDED",
"B.	c #F7F9EB",
"C.	c #ECECE2",
"D.	c #B4B3AC",
"E.	c #836E5B",
"F.	c #BC9261",
"G.	c #9E7D58",
"H.	c #ADAAA2",
"I.	c #999D9C",
"J.	c #5A6068",
"K.	c #A1A8A6",
"L.	c #D3D8D0",
"M.	c #F4F6EA",
"N.	c #F7F9EC",
"O.	c #DCE1D9",
"P.	c #D2D7D1",
"Q.	c #E7EAE0",
"R.	c #F8FBED",
"S.	c #F9FAEC",
"T.	c #EEF0E4",
"U.	c #C8CBC5",
"V.	c #6C6560",
"W.	c #A98358",
"X.	c #B58B5D",
"Y.	c #A28059",
"Z.	c #AFACA1",
"`.	c #989C9C",
" +	c #636A72",
".+	c #B9BDBF",
"++	c #909699",
"@+	c #ACB3AF",
"#+	c #E7EBE0",
"$+	c #F7F8ED",
"%+	c #EEF0E6",
"&+	c #D7DBD3",
"*+	c #D6DAD3",
"=+	c #F1F3E9",
"-+	c #FBFDF0",
";+	c #FAFBEE",
">+	c #DDDFD5",
",+	c #B5BAB4",
"'+	c #9BA09E",
")+	c #65605C",
"!+	c #C39665",
"~+	c #B2895C",
"{+	c #A6835B",
"]+	c #B0ABA2",
"^+	c #999D9E",
"/+	c #626A73",
"(+	c #9CA2A6",
"_+	c #6F767D",
":+	c #505A64",
"<+	c #868E8F",
"[+	c #CACEC8",
"}+	c #EDF0E5",
"|+	c #F6F7EB",
"1+	c #E3E6DD",
"2+	c #D0D4CE",
"3+	c #DEE1DB",
"4+	c #ECEFE5",
"5+	c #C4C7C1",
"6+	c #A1A6A3",
"7+	c #9CA19F",
"8+	c #969D9B",
"9+	c #64605C",
"0+	c #C49866",
"a+	c #A3815A",
"b+	c #ADA9A1",
"c+	c #989D9D",
"d+	c #4C545C",
"e+	c #535C64",
"f+	c #4F5962",
"g+	c #49555F",
"h+	c #49535D",
"i+	c #656C73",
"j+	c #A3AAA8",
"k+	c #DCDFD5",
"l+	c #F5F6EA",
"m+	c #ECEFE3",
"n+	c #B8BCB9",
"o+	c #9CA09E",
"p+	c #5E6160",
"q+	c #5E6260",
"r+	c #9DA3A0",
"s+	c #979C9B",
"t+	c #C19563",
"u+	c #9E7D57",
"v+	c #AAA8A0",
"w+	c #979D9D",
"x+	c #434A54",
"y+	c #4B565F",
"z+	c #4A555F",
"A+	c #48535E",
"B+	c #49545F",
"C+	c #4D555F",
"D+	c #48515C",
"E+	c #777F82",
"F+	c #C9CEC6",
"G+	c #DDE1D8",
"H+	c #9B9F9E",
"I+	c #5C5F60",
"J+	c #454746",
"K+	c #707473",
"L+	c #939997",
"M+	c #919695",
"N+	c #BD9262",
"O+	c #ABA79F",
"P+	c #969C9B",
"Q+	c #39424F",
"R+	c #444F59",
"S+	c #44505B",
"T+	c #434F5A",
"U+	c #414D59",
"V+	c #49545E",
"W+	c #4B5560",
"X+	c #3F4A57",
"Y+	c #9DA4A2",
"Z+	c #C9CFC7",
"`+	c #898E90",
" @	c #858989",
".@	c #8E9492",
"+@	c #878F90",
"@@	c #727B7F",
"#@	c #898E8E",
"$@	c #66605B",
"%@	c #B68D5E",
"&@	c #B1885A",
"*@	c #A7A39A",
"=@	c #C1C5BE",
"-@	c #71777D",
";@	c #3F4955",
">@	c #3C4753",
",@	c #3C4854",
"'@	c #3B4855",
")@	c #3D4A58",
"!@	c #404D5A",
"~@	c #9DA6A4",
"{@	c #CAD0C8",
"]@	c #888D8F",
"^@	c #888D8E",
"/@	c #7D8587",
"(@	c #677075",
"_@	c #666F75",
":@	c #84888A",
"<@	c #69615B",
"[@	c #A48058",
"}@	c #897F74",
"|@	c #BCBFB8",
"1@	c #DCE0D6",
"2@	c #9DA1A1",
"3@	c #515962",
"4@	c #343F4C",
"5@	c #34414E",
"6@	c #344250",
"7@	c #3C4956",
"8@	c #3F4C59",
"9@	c #9EA6A3",
"0@	c #CCD1C8",
"a@	c #888D90",
"b@	c #7E8486",
"c@	c #657077",
"d@	c #677076",
"e@	c #70787C",
"f@	c #868B8C",
"g@	c #68615C",
"h@	c #A88358",
"i@	c #BF9362",
"j@	c #A07C56",
"k@	c #97826C",
"l@	c #7F7267",
"m@	c #6A6562",
"n@	c #929696",
"o@	c #CFD4CB",
"p@	c #C8CCC4",
"q@	c #818789",
"r@	c #3B4552",
"s@	c #293644",
"t@	c #2F3E4B",
"u@	c #384554",
"v@	c #9DA5A3",
"w@	c #898F92",
"x@	c #7F8387",
"y@	c #6C757C",
"z@	c #687277",
"A@	c #868E8E",
"B@	c #8E9293",
"C@	c #625B57",
"D@	c #A88258",
"E@	c #AA8358",
"F@	c #9C7E5C",
"G@	c #9A9184",
"H@	c #B9BBB9",
"I@	c #C6C7C4",
"J@	c #969694",
"K@	c #474C59",
"L@	c #636A71",
"M@	c #B1B6B2",
"N@	c #D5DAD1",
"O@	c #B3B7B3",
"P@	c #5C646D",
"Q@	c #283444",
"R@	c #2C3A4B",
"S@	c #9CA4A2",
"T@	c #CBD0C7",
"U@	c #8A8F92",
"V@	c #80858A",
"W@	c #747C83",
"X@	c #899191",
"Y@	c #898E8F",
"Z@	c #838788",
"`@	c #645E5A",
" #	c #B48B5D",
".#	c #A78158",
"+#	c #967F66",
"@#	c #9E9D95",
"##	c #B3B9B7",
"$#	c #9CA7AA",
"%#	c #B4BCBE",
"&#	c #C8CECB",
"*#	c #ACB1B1",
"=#	c #777C83",
"-#	c #6A727B",
";#	c #8A9295",
">#	c #C3C9C3",
",#	c #CDD2CA",
"'#	c #8D9396",
")#	c #444E5D",
"!#	c #9BA4A3",
"~#	c #CACFC6",
"{#	c #898E91",
"]#	c #8A9093",
"^#	c #8F9495",
"/#	c #888C8D",
"(#	c #73777B",
"_#	c #71787E",
":#	c #665E5A",
"<#	c #A98256",
"[#	c #917C68",
"}#	c #B6B5B2",
"|#	c #B4BCB7",
"1#	c #9EA8A9",
"2#	c #95A0A3",
"3#	c #9CA8AD",
"4#	c #9BA7AC",
"5#	c #C3CBC9",
"6#	c #CFD4D0",
"7#	c #A4A9AC",
"8#	c #6B737F",
"9#	c #6C747D",
"0#	c #9DA5A5",
"a#	c #B6BBB6",
"b#	c #B2B7B4",
"c#	c #BDC3BD",
"d#	c #C7CDC5",
"e#	c #878D8F",
"f#	c #868C8E",
"g#	c #757A7C",
"h#	c #73787C",
"i#	c #696F76",
"j#	c #585A5F",
"k#	c #846C54",
"l#	c #A07B52",
"m#	c #7D7670",
"n#	c #CBCFCA",
"o#	c #BDC3BE",
"p#	c #9EA7A8",
"q#	c #9EA7A7",
"r#	c #A6AFB0",
"s#	c #93A1A6",
"t#	c #9DAAAF",
"u#	c #ACB7B9",
"v#	c #CACFCC",
"w#	c #C4C9C7",
"x#	c #92999E",
"y#	c #676F79",
"z#	c #666E75",
"A#	c #848E92",
"B#	c #AEB6B3",
"C#	c #C1C7BF",
"D#	c #888E90",
"E#	c #959896",
"F#	c #6F7477",
"G#	c #5E6268",
"H#	c #635B54",
"I#	c #886C4F",
"J#	c #A98257",
"K#	c #AA8357",
"L#	c #726051",
"M#	c #707376",
"N#	c #ADB3AF",
"O#	c #CBD0C9",
"P#	c #ADB3B2",
"Q#	c #ADB5B4",
"R#	c #AFB9B7",
"S#	c #9EABAD",
"T#	c #96A4A9",
"U#	c #A7B2B5",
"V#	c #BCC2C2",
"W#	c #D5D9D4",
"X#	c #B1B6B5",
"Y#	c #7A828A",
"Z#	c #5B6571",
"`#	c #778083",
" $	c #9AA09E",
".$	c #5A6169",
"+$	c #7F8384",
"@$	c #616163",
"#$	c #786451",
"$$	c #B38A5B",
"%$	c #A68157",
"&$	c #7D6853",
"*$	c #5E5C5D",
"=$	c #C3C7C2",
"-$	c #BCC1BC",
";$	c #A8AFAE",
">$	c #9DA9AA",
",$	c #96A5A9",
"'$	c #9DACAF",
")$	c #A7B1B1",
"!$	c #C9CFC9",
"~$	c #C5CAC8",
"{$	c #888F96",
"]$	c #565458",
"^$	c #575250",
"/$	c #3E4045",
"($	c #675E56",
"_$	c #B68D5D",
":$	c #AB8459",
"<$	c #947555",
"[$	c #60554E",
"}$	c #686B6F",
"|$	c #A9ADAB",
"1$	c #C6CAC4",
"2$	c #AEB6B5",
"3$	c #A0ABAB",
"4$	c #B1BAB8",
"5$	c #ABB3B2",
"6$	c #A1AAA9",
"7$	c #B5BCBB",
"8$	c #D4D8D5",
"9$	c #ACA69C",
"0$	c #9B7E5F",
"a$	c #A07F5D",
"b$	c #B78F62",
"c$	c #C29765",
"d$	c #A37F56",
"e$	c #856D54",
"f$	c #635D5B",
"g$	c #787F84",
"h$	c #BEC2BD",
"i$	c #DDE0D4",
"j$	c #CFD3C8",
"k$	c #AAB1B1",
"l$	c #97A2A5",
"m$	c #97A2A4",
"n$	c #A2ABAA",
"o$	c #CCD0CE",
"p$	c #959B9E",
"q$	c #91785D",
"r$	c #BF9363",
"s$	c #BB9162",
"t$	c #AD8A61",
"u$	c #7A6A5B",
"v$	c #67686A",
"w$	c #9DA2A0",
"x$	c #D1D4CC",
"y$	c #BBBFBC",
"z$	c #A3AAAA",
"A$	c #B2B9B8",
"B$	c #B5BAB7",
"C$	c #7B6D60",
"D$	c #B48D62",
"E$	c #C29766",
"F$	c #987A5B",
"G$	c #655E5A",
"H$	c #7A7D7F",
"I$	c #B9BEBA",
"J$	c #A7ACAC",
"K$	c #74726F",
"L$	c #8E7459",
"M$	c #B38C62",
"N$	c #8A725A",
"O$	c #726C66",
"P$	c #7B7D7B",
"Q$	c #746B62",
"R$	c #A3815D",
"S$	c #C59967",
"T$	c #C39766",
"U$	c #B18B61",
"V$	c #A4835E",
"W$	c #B58E62",
"X$	c #BD9362",
"Y$	c #C19663",
"Z$	c #B2895A",
"`$	c #B08859",
" %	c #BB9161",
".%	c #B0875B",
"+%	c #BE9262",
"@%	c #B28A5C",
"#%	c #B38B5C",
"$%	c #B38B5B",
"%%	c #B58C5C",
"&%	c #B58B5C",
"  . + @ . . . # . . + . # . # . . + . # # + + @ $ + # + . + + + # . + . # # + # . # # # # + # # # % # # + # # + # # # # # $ # # ",
"& * = - & ; & = ; & > & - & ; , - - ' - ) - ! ~ - { > , ! > ] - ^ , , , { , { , , , / ] / ( / _ , : ( < [ ( : , , } ( | _ _ | ( ",
"1 1 1 1 2 1 1 1 1 3 1 1 1 1 1 1 1 1 1 1 1 1 1 4 1 4 1 1 1 1 5 1 4 1 1 5 1 4 5 1 4 1 5 5 4 5 1 6 5 1 5 4 5 5 4 5 4 5 5 1 5 5 5 5 ",
"7 7 7 7 7 7 7 7 7 7 7 7 7 7 7 7 7 7 7 7 7 7 7 7 7 7 7 7 7 7 7 7 7 7 7 7 7 7 7 7 7 7 7 7 7 7 7 7 7 7 7 7 7 7 7 7 7 7 7 7 7 7 7 7 ",
"7 7 7 7 7 7 7 7 7 7 7 7 7 7 7 7 7 7 7 7 7 7 7 7 7 7 7 7 7 7 7 5 8 2 7 7 7 7 7 7 7 7 7 7 7 7 7 7 7 7 7 7 7 7 7 7 7 7 7 7 7 7 7 7 ",
"7 7 7 7 7 7 7 7 7 7 7 7 7 7 7 7 7 7 7 7 7 7 7 7 7 7 7 7 7 7 1 9 0 a 7 7 7 7 7 7 7 7 7 7 7 7 7 7 7 7 7 7 7 7 7 7 7 7 7 7 7 7 7 7 ",
"7 7 7 7 7 7 7 7 7 7 7 7 7 7 7 7 7 7 7 7 7 7 7 7 7 7 7 7 7 1 - + # b c 7 7 7 7 7 7 7 7 7 7 7 7 7 7 7 7 7 7 7 7 7 7 7 7 7 7 7 7 7 ",
"7 7 7 7 7 7 7 7 7 7 7 7 7 7 7 7 7 7 7 7 7 7 7 7 7 7 7 7 1 d e # # # f 5 7 7 7 7 7 7 7 7 7 7 7 7 7 7 7 7 7 7 7 7 7 7 7 7 7 7 7 7 ",
"7 7 7 7 7 7 7 7 7 7 7 7 7 7 7 7 7 7 7 7 7 7 7 7 7 7 7 7 g 0 # # # # # , 1 7 7 7 7 7 7 7 7 7 7 7 7 7 7 7 7 7 7 7 7 7 7 7 7 7 7 7 ",
"7 7 7 7 7 7 7 7 7 7 7 7 7 7 7 7 7 7 7 7 7 7 7 7 7 7 7 h i # # # # # # @ j 7 7 7 7 7 7 7 7 7 7 7 7 7 7 7 7 7 7 7 7 7 7 7 7 7 7 7 ",
"7 7 7 7 7 7 7 7 7 7 7 7 7 7 7 7 7 7 7 7 7 7 7 7 7 7 4 / # # # # # # # # 0 k 7 7 7 7 7 7 7 7 7 7 7 7 7 7 7 7 7 7 7 7 7 7 7 7 7 7 ",
"7 7 7 7 7 7 7 7 7 7 7 7 7 7 7 7 7 7 7 7 7 7 7 7 7 2 * + # # # # # # # # # l m 7 7 7 7 7 7 7 7 7 7 7 7 7 7 7 7 7 7 7 7 7 7 7 7 7 ",
"7 7 7 7 7 7 7 7 7 7 7 7 7 7 7 7 7 7 7 7 7 7 7 7 7 n @ # # # # # # # # # # # _ 1 7 7 7 7 7 7 7 7 7 7 7 7 7 7 7 7 7 7 7 7 7 7 7 7 ",
"7 7 7 7 7 7 7 7 7 7 7 7 7 7 7 7 7 7 7 7 7 7 7 7 o p # # # # # # # # # # # # # q 1 7 7 7 7 7 7 7 7 7 7 7 7 7 7 7 7 7 7 7 7 7 7 7 ",
"7 7 7 7 7 7 7 7 7 7 7 7 7 7 7 7 7 7 7 7 7 7 7 5 r # # # # # # # # # # # # # # s j 2 7 7 7 7 7 7 7 7 7 7 7 7 7 7 7 7 7 7 7 7 7 7 ",
"7 7 7 7 7 7 7 7 7 7 7 7 7 7 7 7 7 7 7 7 7 7 2 t # # # # # # # # # # # # # # # # u v 7 7 7 7 7 7 7 7 7 7 7 7 7 7 7 7 7 7 7 7 7 7 ",
"7 7 7 7 7 7 7 7 7 7 7 7 7 7 7 7 7 7 7 7 7 7 w . # # # # # # # # # # # # # # # # # f 5 7 7 7 7 7 7 7 7 7 7 7 7 7 7 7 7 7 7 7 7 7 ",
"7 7 7 7 7 7 7 7 7 7 7 7 7 7 7 7 7 7 7 7 3 8 x # # # # # y z A B C D z # # # # # # # , 1 7 7 7 7 7 7 7 7 7 7 7 7 7 7 7 7 7 7 7 7 ",
"7 7 7 7 7 7 7 7 7 7 7 7 7 7 7 7 7 7 7 7 c b $ # # # # y y E F G H I J K L L # # # # s M 2 7 7 7 7 7 7 7 7 7 7 7 7 7 7 7 7 7 7 7 ",
"7 7 7 7 7 7 7 7 7 7 7 7 7 7 7 7 7 7 7 1 N O # # # # y P Q R S T U V W X P K y # # # # Y Z 7 7 7 7 7 7 7 7 7 7 7 7 7 7 7 7 7 7 7 ",
"7 7 7 7 7 7 7 7 7 7 7 7 7 7 7 7 7 7 1 - + # # # L `  ...+.@.#.$.%.&.*.=.-.;.>.# # # # # b h 7 7 7 7 7 7 7 7 7 7 7 7 7 7 7 7 7 7 ",
"7 7 7 7 7 7 7 7 7 7 7 7 7 7 7 7 7 3 j ,.# # # L '.).!.~.&.{.$.].^././.(._.:.<.[.# L z # # | 4 7 7 7 7 7 7 7 7 7 7 7 7 7 7 7 7 7 ",
"7 7 7 7 7 7 7 7 7 7 7 7 7 7 7 7 7 }.x # # # # |.1.2.3.4.5.6.7.8.9.$.0.0.a.b.=.c.d.K y # # + q 1 7 7 7 7 7 7 7 7 7 7 7 7 7 7 7 7 ",
"7 7 7 7 7 7 7 7 7 7 7 7 7 7 7 7 e.i # # # # z f.g.h.i.j.k.l.m.n.8.$.$.9././.o._.p.q.D y # # . r.7 7 7 7 7 7 7 7 7 7 7 7 7 7 7 7 ",
"7 7 7 7 7 7 7 7 7 7 7 7 7 7 7 4 _ # # # # z y '.s.t.u.v.w.*.x.y.6.z.z.A.9.8./.B.C.D.E.>.# # # u o 7 7 7 7 7 7 7 7 7 7 7 7 7 7 7 ",
"7 7 7 7 7 7 7 7 7 7 7 7 7 7 1 F.+ # # # # y y G.H.I.J.K.L.M.N.O.P.Q.R.z./.$.$.S.T.U.V.W.# # # # X.h 7 7 7 7 7 7 7 7 7 7 7 7 7 7 ",
"7 7 7 7 7 7 7 7 7 7 7 7 7 7 a . # # # # # # z Y.Z.`. +.+++@+#+$+%+&+*+=+-+;+B.>+,+'+)+W.z # # # # ] 1 7 7 7 7 7 7 7 7 7 7 7 7 7 ",
"7 7 7 7 7 7 7 7 7 7 7 7 7 !+~+# # # # # # # z {+]+^+/+(+_+:+<+[+}+|+1+2+3+4+5+6+7+8+9+W.z # # # # . * 7 7 7 7 7 7 7 7 7 7 7 7 7 ",
"7 7 7 7 7 7 7 7 7 7 7 7 0+r # # # # # # # y y a+b+c+d+e+f+g+h+i+j+k+l+m+n+o+p+q+r+s+9+W.z # # # # # 0 t+7 7 7 7 7 7 7 7 7 7 7 7 ",
"7 7 7 7 7 7 7 7 7 7 7 1 ) # # # # # # # # y L u+v+w+x+y+z+A+B+C+D+E+F+G+H+I+J+K+L+M+)+W.z # # # # # # l m 7 7 7 7 7 7 7 7 7 7 7 ",
"7 7 7 7 7 7 7 7 7 7 7 N++ # # # # # # # # y y '.O+P+Q+R+S+T+U+V+W+X+Y+Z+`+ @.@+@@@#@$@W.# # # # # # # # %@1 7 7 7 7 7 7 7 7 7 7 ",
"7 7 7 7 7 7 7 7 7 3 n &@# # # # # # # # # # z '.*@=@-@;@>@,@'@)@B+!@~@{@]@^@/@(@_@:@<@W.z # # # # # # # + - 1 7 7 7 7 7 7 7 7 7 ",
"7 7 7 7 7 7 7 7 7 c l # # # # # # # # # # # # [@}@|@1@2@3@4@5@6@7@8@9@0@a@b@c@d@e@f@g@h@y # # # # # # # # s i@7 7 7 7 7 7 7 7 7 ",
"7 7 7 7 7 7 7 7 4 9 # # # # # # # # # # # z j@k@l@m@n@o@p@q@r@s@t@u@v@0@w@x@y@z@A@B@C@D@y # # # # # # # # # u Z 7 7 7 7 7 7 7 7 ",
"7 7 7 7 7 7 7 1 > # # # # # # # # # # # E@F@G@H@I@J@K@L@M@N@O@P@Q@R@S@T@U@V@W@X@Y@Z@`@W.z # # # # # # # # # #  #5 7 7 7 7 7 7 7 ",
"7 7 7 7 7 7 3 j . # # # # # # # # # # .#+#@###$#%#&#*#=#-#;#>#,#'#)#!#~#{#]#^#/#(#_#:#h@y # # # # # # # # # # # , 1 7 7 7 7 7 7 ",
"7 7 7 7 7 7 Z x # # # # # # # # # y <#[#}#|#1#2#3#4#5#6#7#8#9#0#a#b#c#d#e#f#g#h#i#j#k#K z # # # # # # # # # # # . * 1 7 7 7 7 7 ",
"7 7 7 7 7 0+ ## # # # # # # # # # L l#m#n#o#p#q#r#s#t#u#v#w#x#y#z#A#B#C#D#E#F#G#H#I#J## # # # # # # # # # # # # # e t+7 7 7 7 7 ",
"7 7 7 7 4 ( # # # # # # # # # # # z K#L#M#N#O#P#Q#R#S#T#U#V#W#X#Y#Z#`# $.$+$@$#$E >.z # # # # # # # # # # # # # # # $$m 7 7 7 7 ",
"7 7 7 1 q . # # # # # # # # # # # # # %$&$*${#=$-$;$>$,$'$)$O#!$~${$]$^$/$($Q J#y y # # # # # # # # # # # # # # # # # _$5 7 7 7 ",
"7 7 3 a s # # # # # # # # # # # # # # z :$<$[$}$|$1$2$3$4$P.5$6$7$8$9$0$a$b$4 ( # # # # # # # # # # # # # # # # # # # # > 1 7 7 ",
"7 7 c$$$# # # # # # # # # # # # # # # # y y d$e$f$g$h$i$j$k$l$m$n$o$p$q$1 1 7 5 X.# # # # # # # # # # # # # # # # # # # @ r$7 7 ",
"7 5 f # # # # # # # # # # # # # # # # # # z . s$t$u$v$w$x$y$z$A$B$Z@C$D$3 2 7 7 Z 0 # # # # # # # # # # # # # # # # # # # u Z 7 ",
"1 ] # # # # # # # # # # # # # # # # # # # # ; 1 2 E$F$G$H$I$0@J$K$L$s$1 7 7 7 7 2 i@s # # # # # # # # # # # # # # # # # # # i h ",
"* . # # # # # # # # # # # # # # # # # # # 9 1 7 3 3 2 M$N$O$P$Q$R$h 1 7 7 7 7 7 7 2 - + # # # # # # # # # # # # # # # # # # # _ ",
"e # # # # # # # # # # # # # # # # # # # i h 7 7 7 7 2 S$T$U$V$W$1 1 2 7 7 7 7 7 7 7 4 | # # # # # # # # # # # # # # # # # # # # ",
"+ # # # # # # # # # # # # # # # # # # &@t+7 7 7 7 7 7 3 7 2 1 2 7 7 7 7 7 7 7 7 7 7 7 c $$# # # # # # # # # # # # # # # # # # # ",
"r # # # # # # # # # # # # # # # # # . X$7 7 7 7 7 7 7 7 7 7 7 7 7 7 7 7 7 7 7 7 7 7 7 7 Y$e # # # # # # # # # # # # # # # # L l ",
"c b y # # # # # # # # # # # # # # y , 1 7 7 7 7 7 7 7 7 7 7 7 7 7 7 7 7 7 7 7 7 7 7 7 7 1 * + # # # # # # # # # # # # # # # Z$Z ",
"7 a e # # # # # # # # # # # # # # f 5 7 7 7 7 7 7 7 7 7 7 7 7 7 7 7 7 7 7 7 7 7 7 7 7 7 7 1 < # # # # # # # # # # # # # # @ j 2 ",
"7 7 q . # # # # # # # # # # # # u o 7 7 7 7 7 7 7 7 7 7 7 7 7 7 7 7 7 7 7 7 7 7 7 7 7 7 7 7 5 f % # # # # # # # # # # # # ] 1 7 ",
"7 7 1 , # # # # # # # # # # # `$a 7 7 7 7 7 7 7 7 7 7 7 7 7 7 7 7 7 7 7 7 7 7 7 7 7 7 7 7 7 7 Z p # # # # # # # # # # # _$5 7 7 ",
"7 7 7 h f # # # # # # # # # # & 3 7 7 7 7 7 7 7 7 7 7 7 7 7 7 7 7 7 7 7 7 7 7 7 7 7 7 7 7 7 7 7 a e # # # # # # # # # p c 7 7 7 ",
"7 7 7 7 k &@# # # # # # # $ | 1 7 7 7 7 7 7 7 7 7 7 7 7 7 7 7 7 7 7 7 7 7 7 7 7 7 7 7 7 7 7 7 7 2  %# # # # # # # # s a 7 7 7 7 ",
"7 7 7 7 7 i@. # # # # # # l h 7 7 7 7 7 7 7 7 7 7 7 7 7 7 7 7 7 7 7 7 7 7 7 7 7 7 7 7 7 7 7 7 7 7 4 _ O # # # # # # q 7 7 7 7 7 ",
"7 7 7 7 7 1 > # # # # # .%8 7 7 7 7 7 7 7 7 7 7 7 7 7 7 7 7 7 7 7 7 7 7 7 7 7 7 7 7 7 7 7 7 7 7 7 7 m l y # # # # | 4 7 7 7 7 7 ",
"7 7 7 7 7 7 e._$# # # # * 7 7 7 7 7 7 7 7 7 7 7 7 7 7 7 7 7 7 7 7 7 7 7 7 7 7 7 7 7 7 7 7 7 7 7 7 7 7 Z &@# # # $$c 7 7 7 7 7 7 ",
"7 7 7 7 7 7 7 c u # # ] 1 7 7 7 7 7 7 7 7 7 7 7 7 7 7 7 7 7 7 7 7 7 7 7 7 7 7 7 7 7 7 7 7 7 7 7 7 7 7 7 +%+ # s t+7 7 7 7 7 7 7 ",
"7 7 7 7 7 7 7 7 n e r e.7 7 7 7 7 7 7 7 7 7 7 7 7 7 7 7 7 7 7 7 7 7 7 7 7 7 7 7 7 7 7 7 7 7 7 7 7 7 7 7 1 > `$N+3 7 7 7 7 7 7 7 ",
"7 7 7 7 7 7 7 7 3 Z m 7 7 7 7 7 7 7 7 7 7 7 7 7 7 7 7 7 7 7 7 7 7 7 7 7 7 7 7 7 7 7 7 7 7 7 7 7 7 7 7 7 7 5 Z 1 7 7 7 7 7 7 7 7 ",
"7 7 7 7 7 7 7 7 7 7 7 7 7 7 7 7 7 7 7 7 7 7 7 7 7 7 7 7 7 7 7 7 7 7 7 7 7 7 7 7 7 7 7 7 7 7 7 7 7 7 7 7 7 7 7 7 7 7 7 7 7 7 7 7 ",
"Z Z 8 Z Z o c Z g Z v v Z o k Z v o m Z o Z !+o Z o g c c v m c o o !+c c c c c m v m c o m c m c o m c h m c m c m c h h o m m ",
"b $$b b ~+b $$b i $$i p b b b i @%#%b b i b l $$b i i X.l #%i b  #b i #%b i i X.i $% ##%f i i  #b X.X.%%%%b i  #f  ##%%%i X.f &%",
"# # # # # # # # # # # # # # # # # # # # # # # # # # # # # # # # # # # # # # # # # # # # # # # # # # # # # # # # # # # # # # # # "};
