/* XPM */
static char * pato_com_fundo_xpm[] = {
"64 64 710 2",
"  	c #AE8759",
". 	c #AF8759",
"+ 	c #AF8659",
"@ 	c #AF875A",
"# 	c #AE8659",
"$ 	c #AE8658",
"% 	c #AD8658",
"& 	c #BC9160",
"* 	c #BD9261",
"= 	c #BB9061",
"- 	c #BB9060",
"; 	c #BB9160",
"> 	c #BA9060",
", 	c #B98F5F",
"' 	c #BC9060",
") 	c #B98F60",
"! 	c #BA905F",
"~ 	c #BB905F",
"{ 	c #BA8F60",
"] 	c #BA8F5F",
"^ 	c #B98F5E",
"/ 	c #B98E5F",
"( 	c #B88E5F",
"_ 	c #B88E5E",
": 	c #B88F5E",
"< 	c #B88F5F",
"[ 	c #B78D5E",
"} 	c #B68E5E",
"| 	c #B78E5E",
"1 	c #C69966",
"2 	c #C69967",
"3 	c #C69A67",
"4 	c #C59966",
"5 	c #C59866",
"6 	c #C69866",
"7 	c #C79A67",
"8 	c #C19564",
"9 	c #B78D5D",
"0 	c #B1885B",
"a 	c #C09463",
"b 	c #B38A5C",
"c 	c #C39765",
"d 	c #BF9462",
"e 	c #B0885A",
"f 	c #B58C5D",
"g 	c #C29764",
"h 	c #C49865",
"i 	c #B48B5C",
"j 	c #BE9362",
"k 	c #C19664",
"l 	c #B48A5C",
"m 	c #C49765",
"n 	c #C09563",
"o 	c #C39764",
"p 	c #B28A5B",
"q 	c #BC9161",
"r 	c #B68C5D",
"s 	c #B0875A",
"t 	c #B9905F",
"u 	c #AE8559",
"v 	c #B2895B",
"w 	c #C39664",
"x 	c #BD9361",
"y 	c #AD8659",
"z 	c #A8835D",
"A 	c #9B7B60",
"B 	c #A8825A",
"C 	c #B1895B",
"D 	c #AD8558",
"E 	c #AA8459",
"F 	c #987654",
"G 	c #865C46",
"H 	c #734240",
"I 	c #715449",
"J 	c #A27D56",
"K 	c #AC8559",
"L 	c #A17B55",
"M 	c #85674B",
"N 	c #776147",
"O 	c #B78F2F",
"P 	c #BA7318",
"Q 	c #653227",
"R 	c #795849",
"S 	c #9D7B59",
"T 	c #BE9261",
"U 	c #B68C5E",
"V 	c #AD8559",
"W 	c #A78157",
"X 	c #997956",
"Y 	c #70493C",
"Z 	c #8E6E3A",
"` 	c #DAC16C",
" .	c #F3CE39",
"..	c #F3C019",
"+.	c #DF8F19",
"@.	c #945123",
"#.	c #673C3B",
"$.	c #8D6C53",
"%.	c #A58057",
"&.	c #B0885B",
"*.	c #C29664",
"=.	c #A78057",
"-.	c #82634A",
";.	c #755E34",
">.	c #B68935",
",.	c #F2D997",
"'.	c #F6ECBA",
").	c #F5E399",
"!.	c #F6E49A",
"~.	c #F8E578",
"{.	c #EBB22F",
"].	c #B46123",
"^.	c #7A4634",
"/.	c #74574A",
"(.	c #A07F5C",
"_.	c #AC8659",
":.	c #B08759",
"<.	c #AB8459",
"[.	c #997756",
"}.	c #806347",
"|.	c #916C27",
"1.	c #C7A94C",
"2.	c #F2E6A4",
"3.	c #CCC9C2",
"4.	c #BCBABE",
"5.	c #B9B8BC",
"6.	c #B7B6BA",
"7.	c #BAB9B3",
"8.	c #C1B27B",
"9.	c #E5B43A",
"0.	c #CB8117",
"a.	c #883E2C",
"b.	c #7D5A50",
"c.	c #97795C",
"d.	c #C29665",
"e.	c #967557",
"f.	c #523C3A",
"g.	c #8E7121",
"h.	c #E8CA53",
"i.	c #E4D9B4",
"j.	c #A6A19E",
"k.	c #85785F",
"l.	c #888385",
"m.	c #89858C",
"n.	c #888386",
"o.	c #897E58",
"p.	c #7B5836",
"q.	c #8E7340",
"r.	c #BF9815",
"s.	c #E08914",
"t.	c #97452D",
"u.	c #55383E",
"v.	c #876C56",
"w.	c #C59865",
"x.	c #9E7E5B",
"y.	c #694541",
"z.	c #956520",
"A.	c #E2C447",
"B.	c #DFD2A6",
"C.	c #77717C",
"D.	c #807979",
"E.	c #D6CFA9",
"F.	c #E7E5DA",
"G.	c #E7E6E1",
"H.	c #E7E6DD",
"I.	c #E7E3BB",
"J.	c #D8B35B",
"K.	c #8E6C22",
"L.	c #5B481C",
"M.	c #BE9211",
"N.	c #DD8018",
"O.	c #883A29",
"P.	c #5C434C",
"Q.	c #997C64",
"R.	c #BF9463",
"S.	c #AB8458",
"T.	c #A07C53",
"U.	c #7C6253",
"V.	c #7A4C29",
"W.	c #E5B425",
"X.	c #F0E4A6",
"Y.	c #9D9796",
"Z.	c #675F61",
"`.	c #D2CAA7",
" +	c #F9F5D8",
".+	c #F9F7EA",
"++	c #F9F7E9",
"@+	c #F8F7EB",
"#+	c #F7EBBE",
"$+	c #E1C049",
"%+	c #7F5C19",
"&+	c #76591E",
"*+	c #E2A90B",
"=+	c #CF6B22",
"-+	c #793C3B",
";+	c #745951",
">+	c #9E7A55",
",+	c #BC9261",
"'+	c #9C7853",
")+	c #735C39",
"!+	c #542F2C",
"~+	c #B2681F",
"{+	c #F3D552",
"]+	c #D6CFBE",
"^+	c #8F805A",
"/+	c #CDB854",
"(+	c #FAF2C6",
"_+	c #FAF6E5",
":+	c #FAF8E8",
"<+	c #FAF7EA",
"[+	c #F7F2DD",
"}+	c #F7E087",
"|+	c #DD9C1B",
"1+	c #874C1E",
"2+	c #BA950D",
"3+	c #E89910",
"4+	c #A24B29",
"5+	c #612E24",
"6+	c #6B442E",
"7+	c #8D6C4F",
"8+	c #AA8358",
"9+	c #B58B5D",
"0+	c #A27E58",
"a+	c #7B6047",
"b+	c #AB8F43",
"c+	c #AB813B",
"d+	c #905E1B",
"e+	c #E4D78D",
"f+	c #A7A1A0",
"g+	c #A2892D",
"h+	c #F2D538",
"i+	c #F6E270",
"j+	c #F8F0C8",
"k+	c #F9F8ED",
"l+	c #FAF9EC",
"m+	c #F9F8EB",
"n+	c #F9F7E6",
"o+	c #F6E595",
"p+	c #F5D440",
"q+	c #F3B811",
"r+	c #B05D1D",
"s+	c #876119",
"t+	c #DAA50D",
"u+	c #954F23",
"v+	c #9C6B2C",
"w+	c #B37C1F",
"x+	c #583C38",
"y+	c #987655",
"z+	c #C39665",
"A+	c #B2895C",
"B+	c #AC855A",
"C+	c #94785C",
"D+	c #7F6A3F",
"E+	c #DEC76C",
"F+	c #C9B059",
"G+	c #7A4F1E",
"H+	c #D0B37D",
"I+	c #817359",
"J+	c #D3B026",
"K+	c #F7D938",
"L+	c #F5DB59",
"M+	c #F6E380",
"N+	c #F8EEB7",
"O+	c #F8EFBB",
"P+	c #F8EEBC",
"Q+	c #F7E79E",
"R+	c #F5D743",
"S+	c #F5D122",
"T+	c #F4C311",
"U+	c #D9781D",
"V+	c #7A4125",
"W+	c #AE7F15",
"X+	c #AB542F",
"Y+	c #CAA070",
"Z+	c #E3AD37",
"`+	c #7F3D21",
" @	c #836553",
".@	c #A9845A",
"+@	c #C49866",
"@@	c #785634",
"#@	c #CBA33C",
"$@	c #F7E9A9",
"%@	c #E3C263",
"&@	c #AE5224",
"*@	c #C5905C",
"=@	c #7B6D35",
"-@	c #E2BE23",
";@	c #EDCC34",
">@	c #F5DC5E",
",@	c #F8DC4C",
"'@	c #F6D946",
")@	c #F7D94B",
"!@	c #F7D94A",
"~@	c #F7D83F",
"{@	c #F7D52B",
"]@	c #F7D222",
"^@	c #EEBD15",
"/@	c #E5841B",
"(@	c #7B3D2B",
"_@	c #986E18",
":@	c #B4692B",
"<@	c #E8C88F",
"[@	c #F7D781",
"}@	c #CC6F1D",
"|@	c #7A4641",
"1@	c #8E6E57",
"2@	c #C19563",
"3@	c #8F7156",
"4@	c #745A24",
"5@	c #F6D96B",
"6@	c #F8F3D4",
"7@	c #F5D06A",
"8@	c #D25F25",
"9@	c #C08230",
"0@	c #7B6D26",
"a@	c #B69A27",
"b@	c #B0A175",
"c@	c #CCBC6B",
"d@	c #E8CC32",
"e@	c #F6D634",
"f@	c #F7D635",
"g@	c #F6D635",
"h@	c #F7D52F",
"i@	c #F1CE23",
"j@	c #D3B94A",
"k@	c #A69067",
"l@	c #A05B2E",
"m@	c #754132",
"n@	c #97571F",
"o@	c #C97B25",
"p@	c #F5E093",
"q@	c #F8E9AD",
"r@	c #E89322",
"s@	c #833D2F",
"t@	c #806457",
"u@	c #BD9262",
"v@	c #907156",
"w@	c #755E21",
"x@	c #F8D74A",
"y@	c #F9F0C8",
"z@	c #F5D373",
"A@	c #CD5E28",
"B@	c #BB7D25",
"C@	c #76661F",
"D@	c #826A28",
"E@	c #726E77",
"F@	c #5B5457",
"G@	c #C5AA25",
"H@	c #F7D527",
"I@	c #F5D528",
"J@	c #F5D727",
"K@	c #F8D422",
"L@	c #E4BF19",
"M@	c #6D5F41",
"N@	c #49415A",
"O@	c #54333A",
"P@	c #64423F",
"Q@	c #974225",
"R@	c #D07727",
"S@	c #F6E292",
"T@	c #F9EBAF",
"U@	c #EAA123",
"V@	c #7E4532",
"W@	c #7D6457",
"X@	c #A98359",
"Y@	c #B68D5E",
"Z@	c #B1885A",
"`@	c #91745B",
" #	c #755C20",
".#	c #F9D02C",
"+#	c #F8E9A5",
"@#	c #F7D779",
"##	c #CC602B",
"$#	c #B87C2B",
"%#	c #7A602A",
"&#	c #A5761B",
"*#	c #4B3820",
"=#	c #3C2E21",
"-#	c #CEAF17",
";#	c #E2BF18",
">#	c #CDB218",
",#	c #CCB418",
"'#	c #DBB914",
")#	c #E4BB0D",
"!#	c #634D1E",
"~#	c #321522",
"{#	c #875546",
"]#	c #615657",
"^#	c #964127",
"/#	c #CF7527",
"(#	c #F5E08C",
"_#	c #F7E08D",
":#	c #E9A42A",
"<#	c #755244",
"[#	c #735946",
"}#	c #A98257",
"|#	c #92755B",
"1#	c #765A1E",
"2#	c #F9C812",
"3#	c #F7DF6E",
"4#	c #F9DE85",
"5#	c #CD6733",
"6#	c #C6936B",
"7#	c #9A8978",
"8#	c #A96A30",
"9#	c #BD801A",
"0#	c #AF8814",
"a#	c #9F7F16",
"b#	c #8F6824",
"c#	c #8A6B44",
"d#	c #8A5828",
"e#	c #8E481C",
"f#	c #986817",
"g#	c #AC7814",
"h#	c #A8622A",
"i#	c #9C7E6B",
"j#	c #675959",
"k#	c #A6452A",
"l#	c #C77027",
"m#	c #F3DA75",
"n#	c #F4CF48",
"o#	c #E09C33",
"p#	c #6C6362",
"q#	c #745F49",
"r#	c #BF9362",
"s#	c #8F7056",
"t#	c #734D20",
"u#	c #F8B80B",
"v#	c #F5CD25",
"w#	c #F3C63A",
"x#	c #DA7522",
"y#	c #E5B894",
"z#	c #D6D2C7",
"A#	c #7A5F56",
"B#	c #955C2E",
"C#	c #94551D",
"D#	c #9E431A",
"E#	c #C98543",
"F#	c #E2C390",
"G#	c #E38840",
"H#	c #D34019",
"I#	c #9D2820",
"J#	c #863921",
"K#	c #85634C",
"L#	c #53555E",
"M#	c #9C523A",
"N#	c #D27420",
"O#	c #D37A1C",
"P#	c #F2C626",
"Q#	c #F3BB16",
"R#	c #D78E3D",
"S#	c #646C72",
"T#	c #71604C",
"U#	c #A88256",
"V#	c #9D7A57",
"W#	c #744B37",
"X#	c #C67E1A",
"Y#	c #F5BD0A",
"Z#	c #DFA512",
"`#	c #BA6F1B",
" $	c #F1D173",
".$	c #F1EACA",
"+$	c #A2956B",
"@$	c #503029",
"#$	c #A93418",
"$$	c #EA5A0D",
"%$	c #F59E40",
"&$	c #F8CC7E",
"*$	c #F68F39",
"=$	c #F34E15",
"-$	c #E6381B",
";$	c #AC2624",
">$	c #471E31",
",$	c #5D3237",
"'$	c #BF5E32",
")$	c #E38E16",
"!$	c #D57618",
"~$	c #E3A10E",
"{$	c #EEA20F",
"]$	c #B57A56",
"^$	c #5D6268",
"/$	c #846B50",
"($	c #AB8357",
"_$	c #B48B5D",
":$	c #7A5E4C",
"<$	c #85634D",
"[$	c #E7A029",
"}$	c #CF8615",
"|$	c #99621C",
"1$	c #EED142",
"2$	c #F7EFC4",
"3$	c #E5D383",
"4$	c #926524",
"5$	c #B93B16",
"6$	c #F25B0F",
"7$	c #F5AC62",
"8$	c #F7E0B3",
"9$	c #F4BE8B",
"0$	c #F26F30",
"a$	c #ED3B1A",
"b$	c #BA2B23",
"c$	c #6F272A",
"d$	c #A84B33",
"e$	c #D57925",
"f$	c #EFA60B",
"g$	c #B66518",
"h$	c #B96E17",
"i$	c #E48926",
"j$	c #8F7C77",
"k$	c #5D5755",
"l$	c #AC8458",
"m$	c #977655",
"n$	c #666361",
"o$	c #937863",
"p$	c #A24E36",
"q$	c #AA601F",
"r$	c #F2CC2B",
"s$	c #F7EBB6",
"t$	c #F9EFC2",
"u$	c #DCB94D",
"v$	c #90501D",
"w$	c #BC501F",
"x$	c #E8AC7D",
"y$	c #EBCAC7",
"z$	c #EACAC1",
"A$	c #E8936E",
"B$	c #BF3724",
"C$	c #6D242B",
"D$	c #863E30",
"E$	c #D47336",
"F$	c #EAAF1F",
"G$	c #F2B107",
"H$	c #A5571D",
"I$	c #893C2F",
"J$	c #AD725E",
"K$	c #6B706F",
"L$	c #816A52",
"M$	c #A88157",
"N$	c #AC8457",
"O$	c #927454",
"P$	c #5C5C5B",
"Q$	c #473245",
"R$	c #B86228",
"S$	c #F4B913",
"T$	c #F6DB62",
"U$	c #F8F2DB",
"V$	c #F9EFBE",
"W$	c #D7AB44",
"X$	c #8C4725",
"Y$	c #853432",
"Z$	c #822F32",
"`$	c #7F2D34",
" %	c #7E2F3C",
".%	c #742F32",
"+%	c #924639",
"@%	c #C4653A",
"#%	c #E5A859",
"$%	c #F5CA3D",
"%%	c #EA9912",
"&%	c #B55833",
"*%	c #563140",
"=%	c #54565E",
"-%	c #806D55",
";%	c #A78055",
">%	c #AA8357",
",%	c #886B4C",
"'%	c #403F47",
")%	c #A47561",
"!%	c #EC9613",
"~%	c #F4D126",
"{%	c #F6E394",
"]%	c #F9F5E2",
"^%	c #F8E8B2",
"/%	c #CC863D",
"(%	c #964229",
"_%	c #8A3D2D",
":%	c #873E30",
"<%	c #853D30",
"[%	c #A34C37",
"}%	c #C36041",
"|%	c #DB915D",
"1%	c #F0C651",
"2%	c #F3BA13",
"3%	c #DE7218",
"4%	c #AB6E5B",
"5%	c #4B5159",
"6%	c #695440",
"7%	c #B38A5B",
"8%	c #A37E53",
"9%	c #5F5651",
"0%	c #7D7E7E",
"a%	c #D27B3E",
"b%	c #EFA711",
"c%	c #F5CC20",
"d%	c #F6DA61",
"e%	c #F7EEC2",
"f%	c #F0DBB9",
"g%	c #DB9B76",
"h%	c #CA673F",
"i%	c #C76138",
"j%	c #C55F3B",
"k%	c #CD6B31",
"l%	c #DB8E3F",
"m%	c #EDBE50",
"n%	c #F4BE13",
"o%	c #EA920B",
"p%	c #C85D34",
"q%	c #8D7B79",
"r%	c #606763",
"s%	c #9B774F",
"t%	c #B68D5D",
"u%	c #AC8558",
"v%	c #9D7A54",
"w%	c #67635A",
"x%	c #8B7B6F",
"y%	c #D37B3D",
"z%	c #EBA011",
"A%	c #F3C20C",
"B%	c #F4D341",
"C%	c #F4DE7F",
"D%	c #EFD280",
"E%	c #E1A75A",
"F%	c #DA9129",
"G%	c #D98C24",
"H%	c #E7A215",
"I%	c #F2B80C",
"J%	c #F1B30E",
"K%	c #E9920E",
"L%	c #D16A2E",
"M%	c #96756D",
"N%	c #666866",
"O%	c #8A7050",
"P%	c #C29765",
"Q%	c #9F7D56",
"R%	c #6E665F",
"S%	c #8B7974",
"T%	c #CA7F48",
"U%	c #E79C1A",
"V%	c #EFAA0E",
"W%	c #F3BB0B",
"X%	c #F5C617",
"Y%	c #F5CA2D",
"Z%	c #F4C210",
"`%	c #F3BD06",
" &	c #F2B305",
".&	c #ED9F0A",
"+&	c #E2831A",
"@&	c #CD6639",
"#&	c #9E7870",
"$&	c #6B6B6A",
"%&	c #8C7053",
"&&	c #BF9363",
"*&	c #A7845D",
"=&	c #676661",
"-&	c #787978",
";&	c #A9866A",
">&	c #C87543",
",&	c #E3911F",
"'&	c #EBA717",
")&	c #ECA713",
"!&	c #ECA712",
"~&	c #ECA514",
"{&	c #E48E1C",
"]&	c #CE7138",
"^&	c #B17861",
"/&	c #8A7471",
"(&	c #676C6C",
"_&	c #94795A",
":&	c #AA855D",
"<&	c #7C6B58",
"[&	c #5E6869",
"}&	c #7B7A7A",
"|&	c #978778",
"1&	c #9A8A70",
"2&	c #A28C6B",
"3&	c #A58E6B",
"4&	c #9F876A",
"5&	c #9A8575",
"6&	c #858782",
"7&	c #5B6C70",
"8&	c #6D685D",
"9&	c #9B7B59",
"0&	c #C09564",
"a&	c #BF9464",
"b&	c #A5815C",
"c&	c #A18868",
"d&	c #706B62",
"e&	c #61615E",
"f&	c #646564",
"g&	c #635F5E",
"h&	c #68645E",
"i&	c #97886B",
"j&	c #A0805D",
"k&	c #B58D61",
"l&	c #B78E62",
"m&	c #B38C61",
"n&	c #B38D63",
"o&	c #C19665",
"p&	c #BD9362",
"q&	c #C19663",
"r&	c #B2895A",
"s&	c #B08859",
"t&	c #BB9161",
"u&	c #B0875B",
"v&	c #BE9262",
"w&	c #B28A5C",
"x&	c #B38B5C",
"y&	c #B38B5B",
"z&	c #B58C5C",
"A&	c #B58B5C",
"  . + @ . . . # . . + . # . # . . + . # # + + @ $ + # + . + + + # . + . # # + # . # # # # + # # # % # # + # # + # # # # # $ # # ",
"& * = - & ; & = ; & > & - & ; , - - ' - ) - ! ~ - { > , ! > ] - ^ , , , { , { , , , / ] / ( / _ , : ( < [ ( : , , } ( | _ _ | ( ",
"1 1 1 1 2 1 1 1 1 3 1 1 1 1 1 1 1 1 1 1 1 1 1 4 1 4 1 1 1 1 5 1 4 1 1 5 1 4 5 1 4 1 5 5 4 5 1 6 5 1 5 4 5 5 4 5 4 5 5 1 5 5 5 5 ",
"7 7 7 7 7 7 7 7 7 7 7 7 7 7 7 7 7 7 7 7 7 7 7 7 7 7 7 7 7 7 7 7 7 7 7 7 7 7 7 7 7 7 7 7 7 7 7 7 7 7 7 7 7 7 7 7 7 7 7 7 7 7 7 7 ",
"7 7 7 7 7 7 7 7 7 7 7 7 7 7 7 7 7 7 7 7 7 7 7 7 7 7 7 7 7 7 7 5 8 2 7 7 7 7 7 7 7 7 7 7 7 7 7 7 7 7 7 7 7 7 7 7 7 7 7 7 7 7 7 7 ",
"7 7 7 7 7 7 7 7 7 7 7 7 7 7 7 7 7 7 7 7 7 7 7 7 7 7 7 7 7 7 1 9 0 a 7 7 7 7 7 7 7 7 7 7 7 7 7 7 7 7 7 7 7 7 7 7 7 7 7 7 7 7 7 7 ",
"7 7 7 7 7 7 7 7 7 7 7 7 7 7 7 7 7 7 7 7 7 7 7 7 7 7 7 7 7 1 - + # b c 7 7 7 7 7 7 7 7 7 7 7 7 7 7 7 7 7 7 7 7 7 7 7 7 7 7 7 7 7 ",
"7 7 7 7 7 7 7 7 7 7 7 7 7 7 7 7 7 7 7 7 7 7 7 7 7 7 7 7 1 d e # # # f 5 7 7 7 7 7 7 7 7 7 7 7 7 7 7 7 7 7 7 7 7 7 7 7 7 7 7 7 7 ",
"7 7 7 7 7 7 7 7 7 7 7 7 7 7 7 7 7 7 7 7 7 7 7 7 7 7 7 7 g 0 # # # # # , 1 7 7 7 7 7 7 7 7 7 7 7 7 7 7 7 7 7 7 7 7 7 7 7 7 7 7 7 ",
"7 7 7 7 7 7 7 7 7 7 7 7 7 7 7 7 7 7 7 7 7 7 7 7 7 7 7 h i # # # # # # @ j 7 7 7 7 7 7 7 7 7 7 7 7 7 7 7 7 7 7 7 7 7 7 7 7 7 7 7 ",
"7 7 7 7 7 7 7 7 7 7 7 7 7 7 7 7 7 7 7 7 7 7 7 7 7 7 4 / # # # # # # # # 0 k 7 7 7 7 7 7 7 7 7 7 7 7 7 7 7 7 7 7 7 7 7 7 7 7 7 7 ",
"7 7 7 7 7 7 7 7 7 7 7 7 7 7 7 7 7 7 7 7 7 7 7 7 7 2 * + # # # # # # # # # l m 7 7 7 7 7 7 7 7 7 7 7 7 7 7 7 7 7 7 7 7 7 7 7 7 7 ",
"7 7 7 7 7 7 7 7 7 7 7 7 7 7 7 7 7 7 7 7 7 7 7 7 7 n @ # # # # # # # # # # # _ 1 7 7 7 7 7 7 7 7 7 7 7 7 7 7 7 7 7 7 7 7 7 7 7 7 ",
"7 7 7 7 7 7 7 7 7 7 7 7 7 7 7 7 7 7 7 7 7 7 7 7 o p # # # # # # # # # # # # # q 1 7 7 7 7 7 7 7 7 7 7 7 7 7 7 7 7 7 7 7 7 7 7 7 ",
"7 7 7 7 7 7 7 7 7 7 7 7 7 7 7 7 7 7 7 7 7 7 7 5 r # # # # # # # # # # # # # # s j 2 7 7 7 7 7 7 7 7 7 7 7 7 7 7 7 7 7 7 7 7 7 7 ",
"7 7 7 7 7 7 7 7 7 7 7 7 7 7 7 7 7 7 7 7 7 7 2 t # # # # # # # # u u # # # # # # v w 7 7 7 7 7 7 7 7 7 7 7 7 7 7 7 7 7 7 7 7 7 7 ",
"7 7 7 7 7 7 7 7 7 7 7 7 7 7 7 7 7 7 7 7 7 7 x . # # # # y # # z A B # y # # # # # f 5 7 7 7 7 7 7 7 7 7 7 7 7 7 7 7 7 7 7 7 7 7 ",
"7 7 7 7 7 7 7 7 7 7 7 7 7 7 7 7 7 7 7 7 3 8 C # # # # D y E F G H I J y y # # # # # , 1 7 7 7 7 7 7 7 7 7 7 7 7 7 7 7 7 7 7 7 7 ",
"7 7 7 7 7 7 7 7 7 7 7 7 7 7 7 7 7 7 7 7 c b $ # # # D K L M N O P Q R S E # # # # # s T 2 7 7 7 7 7 7 7 7 7 7 7 7 7 7 7 7 7 7 7 ",
"7 7 7 7 7 7 7 7 7 7 7 7 7 7 7 7 7 7 7 1 U u # # V D W X Y Z `  ...+.@.#.$.%.K D # # # &.*.7 7 7 7 7 7 7 7 7 7 7 7 7 7 7 7 7 7 7 ",
"7 7 7 7 7 7 7 7 7 7 7 7 7 7 7 7 7 7 1 - + # # V K =.-.;.>.,.'.).!.~.{.].^./.(._.V # # # b h 7 7 7 7 7 7 7 7 7 7 7 7 7 7 7 7 7 7 ",
"7 7 7 7 7 7 7 7 7 7 7 7 7 7 7 7 7 3 j :.# # D <.[.}.|.1.2.3.4.5.6.7.8.9.0.a.b.c.<.# # # # | 4 7 7 7 7 7 7 7 7 7 7 7 7 7 7 7 7 7 ",
"7 7 7 7 7 7 7 7 7 7 7 7 7 7 7 7 7 d.C # # y V e.f.g.h.i.j.k.l.m.n.o.p.q.r.s.t.u.v.K # # # + q 1 7 7 7 7 7 7 7 7 7 7 7 7 7 7 7 7 ",
"7 7 7 7 7 7 7 7 7 7 7 7 7 7 7 7 w.i # # y y x.y.z.A.B.C.D.E.F.G.H.I.J.K.L.M.N.O.P.Q.# y # # . R.7 7 7 7 7 7 7 7 7 7 7 7 7 7 7 7 ",
"7 7 7 7 7 7 7 7 7 7 7 7 7 7 7 4 _ # # y S.T.U.V.W.X.Y.Z.`. +.+++++@+#+$+%+&+*+=+-+;+>+S.# # # v o 7 7 7 7 7 7 7 7 7 7 7 7 7 7 7 ",
"7 7 7 7 7 7 7 7 7 7 7 7 7 7 1 ,++ # # S.'+)+!+~+{+]+^+/+(+_+:+:+:+<+[+}+|+1+2+3+4+5+6+7+8+# # # 9+h 7 7 7 7 7 7 7 7 7 7 7 7 7 7 ",
"7 7 7 7 7 7 7 7 7 7 7 7 7 7 a . # # # 0+a+b+c+d+e+f+g+h+i+j+k+l+m+n+o+p+q+r+s+t+u+v+w+x+y+# # # # ] 1 7 7 7 7 7 7 7 7 7 7 7 7 7 ",
"7 7 7 7 7 7 7 7 7 7 7 7 7 z+A+# # # B+C+D+E+F+G+H+I+J+K+L+M+N+O+P+Q+R+S+T+U+V+W+X+Y+Z+`+ @.@# # # . * 7 7 7 7 7 7 7 7 7 7 7 7 7 ",
"7 7 7 7 7 7 7 7 7 7 7 7 +@r # # # # S @@#@$@%@&@*@=@-@;@>@,@'@)@!@~@{@]@^@/@(@_@:@<@[@}@|@1@<.# # # 0 2@7 7 7 7 7 7 7 7 7 7 7 7 ",
"7 7 7 7 7 7 7 7 7 7 7 1 ) # # # # # 3@4@5@6@7@8@9@0@a@b@c@d@e@f@g@h@i@j@k@l@m@n@o@p@q@r@s@t@E # # # # l m 7 7 7 7 7 7 7 7 7 7 7 ",
"7 7 7 7 7 7 7 7 7 7 7 u@+ # # # # # v@w@x@y@z@A@B@C@D@E@F@G@H@I@J@K@L@M@N@O@P@Q@R@S@T@U@V@W@X@# # # # # Y@1 7 7 7 7 7 7 7 7 7 7 ",
"7 7 7 7 7 7 7 7 7 3 n Z@# # # # # # `@ #.#+#@###$#%#&#*#=#-#;#>#,#'#)#!#~#{#]#^#/#(#_#:#<#[#}## # # # # + - 1 7 7 7 7 7 7 7 7 7 ",
"7 7 7 7 7 7 7 7 7 c l # # # # # # # |#1#2#3#4#5#6#7#8#9#0#a#b#c#d#e#f#g#h#i#j#k#l#m#n#o#p#q#}## # # # # # s r#7 7 7 7 7 7 7 7 7 ",
"7 7 7 7 7 7 7 7 4 9 # # # # # # # # s#t#u#v#w#x#y#z#A#B#C#D#E#F#G#H#I#J#K#L#M#N#O#P#Q#R#S#T#U## # # # # # # v *.7 7 7 7 7 7 7 7 ",
"7 7 7 7 7 7 7 1 > # # # # # # # # # V#W#X#Y#Z#`# $.$+$@$#$$$%$&$*$=$-$;$>$,$'$)$!$~${$]$^$/$($# # # # # # # # _$5 7 7 7 7 7 7 7 ",
"7 7 7 7 7 7 3 j . # # # # # # # # # W :$<$[$}$|$1$2$3$4$5$6$7$8$9$0$a$b$c$d$e$f$g$h$i$j$k$'+V # # # # # # # # # , 1 7 7 7 7 7 7 ",
"7 7 7 7 7 7 *.C # # # # # # # # # # l$m$n$o$p$q$r$s$t$u$v$w$x$y$z$A$B$C$D$E$F$G$H$I$J$K$L$M$y # # # # # # # # # . * 1 7 7 7 7 7 ",
"7 7 7 7 7 +@_$# # # # # # # # # # # V N$O$P$Q$R$S$T$U$V$W$X$Y$Z$`$ %.%+%@%#%$%%%&%*%=%-%;%# # # # # # # # # # # # e 2@7 7 7 7 7 ",
"7 7 7 7 4 ( # # # # # # # # # # # # # D >%,%'%)%!%~%{%]%^%/%(%_%:%<%[%}%|%1%2%3%4%5%6%=.V # # # # # # # # # # # # # 7%m 7 7 7 7 ",
"7 7 7 1 q . # # # # # # # # # # # # # y D 8%9%0%a%b%c%d%e%f%g%h%i%j%k%l%m%n%o%p%q%r%s%D V # # # # # # # # # # # # # # t%5 7 7 7 ",
"7 7 3 a s # # # # # # # # # # # # # # # # u%v%w%x%y%z%A%B%C%D%E%F%G%H%I%J%K%L%M%N%O%l$V # # # # # # # # # # # # # # # # > 1 7 7 ",
"7 7 P%7%# # # # # # # # # # # # # # # # # D D Q%R%S%T%U%V%W%X%Y%Z%`% &.&+&@&#&$&%&>%D # # # # # # # # # # # # # # # # # @ &&7 7 ",
"7 5 f # # # # # # # # # # # # # # # # # # # + * *&=&-&;&>&,&'&)&!&~&{&]&^&/&(&_&u@0 # # # # # # # # # # # # # # # # # # # v *.7 ",
"1 ] # # # # # # # # # # # # # # # # # # # # ; 4 c :&<&[&}&|&1&2&3&4&5&6&7&8&9&0&2 r#s # # # # # # # # # # # # # # # # # # # i h ",
"* . # # # # # # # # # # # # # # # # # # # 9 1 7 7 2 a&b&c&d&e&f&f&g&h&i&j&k&1 7 7 2 - + # # # # # # # # # # # # # # # # # # # _ ",
"e # # # # # # # # # # # # # # # # # # # i h 7 7 7 7 7 1 +@l&m&n&n&m&k&o&1 1 7 7 7 7 4 | # # # # # # # # # # # # # # # # # # # # ",
"+ # # # # # # # # # # # # # # # # # # Z@2@7 7 7 7 7 7 3 3 7 7 7 7 7 7 3 7 3 7 7 7 7 7 c 7%# # # # # # # # # # # # # # # # # # # ",
"r # # # # # # # # # # # # # # # # # . p&7 7 7 7 7 7 7 7 7 7 7 7 7 7 7 7 7 7 7 7 7 7 7 7 q&e # # # # # # # # # # # # # # # # D l ",
"c b V # # # # # # # # # # # # # # V , 1 7 7 7 7 7 7 7 7 7 7 7 7 7 7 7 7 7 7 7 7 7 7 7 7 1 * + # # # # # # # # # # # # # # # r&*.",
"7 a e # # # # # # # # # # # # # # f 5 7 7 7 7 7 7 7 7 7 7 7 7 7 7 7 7 7 7 7 7 7 7 7 7 7 7 1 < # # # # # # # # # # # # # # @ j 2 ",
"7 7 q . # # # # # # # # # # # # v o 7 7 7 7 7 7 7 7 7 7 7 7 7 7 7 7 7 7 7 7 7 7 7 7 7 7 7 7 5 f % # # # # # # # # # # # # ] 1 7 ",
"7 7 1 , # # # # # # # # # # # s&a 7 7 7 7 7 7 7 7 7 7 7 7 7 7 7 7 7 7 7 7 7 7 7 7 7 7 7 7 7 7 *.p # # # # # # # # # # # t%5 7 7 ",
"7 7 7 h f # # # # # # # # # # & 3 7 7 7 7 7 7 7 7 7 7 7 7 7 7 7 7 7 7 7 7 7 7 7 7 7 7 7 7 7 7 7 a e # # # # # # # # # p c 7 7 7 ",
"7 7 7 7 k Z@# # # # # # # $ | 1 7 7 7 7 7 7 7 7 7 7 7 7 7 7 7 7 7 7 7 7 7 7 7 7 7 7 7 7 7 7 7 7 2 t&# # # # # # # # s a 7 7 7 7 ",
"7 7 7 7 7 r#. # # # # # # l h 7 7 7 7 7 7 7 7 7 7 7 7 7 7 7 7 7 7 7 7 7 7 7 7 7 7 7 7 7 7 7 7 7 7 4 _ u # # # # # # q 7 7 7 7 7 ",
"7 7 7 7 7 1 > # # # # # u&8 7 7 7 7 7 7 7 7 7 7 7 7 7 7 7 7 7 7 7 7 7 7 7 7 7 7 7 7 7 7 7 7 7 7 7 7 m l V # # # # | 4 7 7 7 7 7 ",
"7 7 7 7 7 7 w.t%# # # # * 7 7 7 7 7 7 7 7 7 7 7 7 7 7 7 7 7 7 7 7 7 7 7 7 7 7 7 7 7 7 7 7 7 7 7 7 7 7 *.Z@# # # 7%c 7 7 7 7 7 7 ",
"7 7 7 7 7 7 7 c v # # ] 1 7 7 7 7 7 7 7 7 7 7 7 7 7 7 7 7 7 7 7 7 7 7 7 7 7 7 7 7 7 7 7 7 7 7 7 7 7 7 7 v&+ # s 2@7 7 7 7 7 7 7 ",
"7 7 7 7 7 7 7 7 n e r w.7 7 7 7 7 7 7 7 7 7 7 7 7 7 7 7 7 7 7 7 7 7 7 7 7 7 7 7 7 7 7 7 7 7 7 7 7 7 7 7 1 > s&u@3 7 7 7 7 7 7 7 ",
"7 7 7 7 7 7 7 7 3 *.m 7 7 7 7 7 7 7 7 7 7 7 7 7 7 7 7 7 7 7 7 7 7 7 7 7 7 7 7 7 7 7 7 7 7 7 7 7 7 7 7 7 7 5 *.1 7 7 7 7 7 7 7 7 ",
"7 7 7 7 7 7 7 7 7 7 7 7 7 7 7 7 7 7 7 7 7 7 7 7 7 7 7 7 7 7 7 7 7 7 7 7 7 7 7 7 7 7 7 7 7 7 7 7 7 7 7 7 7 7 7 7 7 7 7 7 7 7 7 7 ",
"*.*.8 *.*.o c *.g *.w w *.o k *.w o m *.o *.z+o *.o g c c w m c o o z+c c c c c m w m c o m c m c o m c h m c m c m c h h o m m ",
"b 7%b b A+b 7%b i 7%i p b b b i w&x&b b i b l 7%b i i 9+l x&i b _$b i x&b i i 9+i y&_$x&f i i _$b 9+9+z&z&b i _$f _$x&z&i 9+f A&",
"# # # # # # # # # # # # # # # # # # # # # # # # # # # # # # # # # # # # # # # # # # # # # # # # # # # # # # # # # # # # # # # # "};
