/* XPM */
static char *Pato[] = {
/* columns rows colors chars-per-pixel */
"64 64 250 2 ",
"   c None",
".  c #0B041D",
"X  c #07031D",
"o  c #12051F",
"O  c #0B0423",
"+  c #0C0726",
"@  c #120524",
"#  c #110A25",
"$  c #170A29",
"%  c #191329",
"&  c #1B1935",
"*  c #220B28",
"=  c #291526",
"-  c #361727",
";  c #261B35",
":  c #300C26",
">  c #1C233B",
",  c #3C312B",
"<  c #27253B",
"1  c #362837",
"2  c #382C28",
"3  c #32111D",
"4  c #55321C",
"5  c #460F26",
"6  c #451629",
"7  c #591A29",
"8  c #471932",
"9  c #621C2B",
"0  c #56282A",
"q  c #433526",
"w  c #502D2F",
"e  c #692A2C",
"r  c #783624",
"t  c #692A32",
"y  c #683839",
"u  c #77302B",
"i  c #672C1E",
"p  c #764F19",
"a  c #544530",
"s  c #775229",
"d  c #766329",
"f  c #7A6818",
"g  c #1F2B44",
"h  c #282B45",
"j  c #2A344B",
"k  c #373145",
"l  c #2C3B53",
"z  c #342B44",
"x  c #433849",
"c  c #433F57",
"v  c #6E3642",
"b  c #2E4256",
"n  c #3B5567",
"m  c #3F6073",
"M  c #4D4754",
"N  c #736554",
"B  c #515267",
"V  c #635D6F",
"C  c #496477",
"Z  c #596379",
"A  c #726E77",
"S  c #655F5F",
"D  c #B23718",
"F  c #93242C",
"G  c #8A392A",
"H  c #96322A",
"J  c #A82625",
"K  c #A83829",
"L  c #BB3828",
"P  c #B12A21",
"I  c #A02F1F",
"U  c #CC3819",
"Y  c #ED381B",
"T  c #F13918",
"R  c #C93526",
"E  c #C63D36",
"W  c #EA3521",
"Q  c #8B4D1F",
"!  c #B1501C",
"~  c #987716",
"^  c #8D6D17",
"/  c #B07117",
"(  c #924A2B",
")  c #B84829",
"_  c #B85824",
"`  c #BB4A37",
"'  c #BB563A",
"]  c #A5552A",
"[  c #9C6B2A",
"{  c #C75D1E",
"}  c #D7541C",
"|  c #F44515",
" . c #F2530E",
".. c #CA781A",
"X. c #D8791A",
"o. c #D16C18",
"O. c #E5661B",
"+. c #E97817",
"@. c #F76F0C",
"#. c #C6482A",
"$. c #CB592C",
"%. c #D55B2B",
"&. c #D75528",
"*. c #C84833",
"=. c #C75939",
"-. c #D25933",
";. c #D74F2C",
":. c #D96727",
">. c #DA7721",
",. c #C9623A",
"<. c #CA6337",
"1. c #DA6B38",
"2. c #C96725",
"3. c #E56D26",
"4. c #BB3B44",
"5. c #C63F44",
"6. c #B95446",
"7. c #B67158",
"8. c #B27467",
"9. c #89674F",
"0. c #C75A43",
"q. c #C04C42",
"w. c #C7674C",
"e. c #CE764E",
"r. c #9C8319",
"t. c #B18C15",
"y. c #AC922D",
"u. c #C98719",
"i. c #C69A14",
"p. c #D79014",
"a. c #ED970C",
"s. c #F3960B",
"d. c #E78716",
"f. c #E99713",
"g. c #EE910E",
"h. c #CBA314",
"j. c #DAB816",
"k. c #D3AF0C",
"l. c #EAA70C",
"z. c #F1AB0B",
"x. c #F3AA07",
"c. c #E5BA0A",
"v. c #F4B503",
"b. c #F5BC03",
"n. c #F2B40B",
"m. c #F4BE0B",
"M. c #F8BD03",
"N. c #E8A416",
"B. c #F2B91A",
"V. c #EEB311",
"C. c #DA8E2C",
"Z. c #EB9730",
"A. c #C9AC26",
"S. c #EFAF2E",
"D. c #F6C304",
"F. c #F6C905",
"G. c #F9CC04",
"H. c #F4C50A",
"J. c #F6CA0B",
"K. c #F9CC0C",
"L. c #F9C307",
"P. c #F6CB12",
"I. c #F9CD13",
"U. c #F6CB1A",
"Y. c #F6C818",
"T. c #F6D11C",
"R. c #F8D21E",
"E. c #F9D116",
"W. c #ECC310",
"Q. c #F5CA23",
"!. c #F8D424",
"~. c #F6D42A",
"^. c #F8D62B",
"/. c #F5D527",
"(. c #F4C93B",
"). c #F8D732",
"_. c #F7D53B",
"`. c #F7D93C",
"'. c #F8D93C",
"]. c #F7D736",
"[. c #E1C72E",
"{. c #99897B",
"}. c #B7856F",
"|. c #E88A4A",
" X c #D8B253",
".X c #F3AA4F",
"XX c #CE8E6F",
"oX c #EFB268",
"OX c #CE8549",
"+X c #F7D846",
"@X c #F8DB59",
"#X c #F3D04C",
"$X c #D3C272",
"%X c #F5DB64",
"&X c #F6DA68",
"*X c #F7D976",
"=X c #FBC86B",
"-X c #F8E170",
";X c #F7E051",
":X c #557A87",
">X c #467081",
",X c #797686",
"<X c #6D7282",
"1X c #528891",
"2X c #63909B",
"3X c #6CAEB7",
"4X c #76BFC8",
"5X c #9A989B",
"6X c #8E8B90",
"7X c #B19484",
"8X c #AFAC92",
"9X c #9AACA8",
"0X c #95B9B6",
"qX c #91B2B0",
"wX c #ACB0A6",
"eX c #CFB492",
"rX c #E5B48E",
"tX c #F4D78A",
"yX c #F0D593",
"uX c #F6E58A",
"iX c #F7E695",
"pX c #D4CDB9",
"aX c #F7D9AD",
"sX c #F8E8A7",
"dX c #F9EBB3",
"fX c #F7EAB7",
"gX c #FAF0BF",
"hX c #A2BCC1",
"jX c #91CCCE",
"kX c #87E2E2",
"lX c #93E6E2",
"zX c #8CDDDD",
"xX c #D3D0CD",
"cX c #D2CFCC",
"vX c #F9EEC1",
"bX c #F6E8C6",
"nX c #F8F1CA",
"mX c #F8EFD2",
"MX c #F9F2D5",
"NX c #F9F4DC",
"BX c #F5F1DF",
"VX c #EAE5D7",
"CX c #FAF6E3",
"ZX c #F9F7EC",
"AX c #FBF9EC",
"SX c #F5F4E7",
"DX c #FBFAF1",
"FX c #F6F7F4",
"GX c #EBEDE5",
"HX c #E2DFD9",
/* pixels */
"                                                                                                                                ",
"                                                                                                                                ",
"                                                                                                                                ",
"                                                                                                                                ",
"                                                                                                                                ",
"                                                                                                                                ",
"                                                                <X                                                              ",
"                                                              v v 1 x                                                           ",
"                                                          x a ] ! 0 ;                                                           ",
"                                                        , 1 y.E.l._ - =                                                         ",
"                                                    % o t.dX*XK.K.n.O.*.* %                                                     ",
"                                                  % F k.dX%XP.K.K.G.D.b.{ F - M                                                 ",
"                                              # a t.p.sXbXbXgXgXfXfXsXF.z.{ K y % k                                             ",
"                                            a 4 d ].-XCXZXAXZXZXSXSXBXtX#XN.d.Q 6 8 A                                           ",
"                                          z p z.(.fXAXAXAXZXSXGXGXGXSXSXfX#XK.d.#.H X                                           ",
"                                      ; # ~ F.@XAXAXAX; O X X X X X X X # 8X+XG.z.&.*.# h                                       ",
"                                    & * ~ c.*XMXHX,Xx t.eXcXxXxXxXpX$Xh.I y q ~ D.l.;.K = ; A                                   ",
"                                  h 9 ^ c.%XgXcXV ; 5XyXMXAXAXAXAXCXvXiXC.~ 2 q ~ D.f.&.G - M                                   ",
"                                  @ _ m.+XgXHX6X% M nXCXAXAXAXAXAXAXZXNX%X!.^ - q h.G.X.%.t z Z                                 ",
"                                  @ x.F.fXZX5X< 1 DX%XNXAXAXAXAXAXAXAXZXSX#XD.f * w G.b.:.' 0 h                                 ",
"                            + O = ;.F.K.vXDX6Xa +XDXAXAXAXAXAXAXAXAXAXZXCXCX@Xa.( = G.F.g.:.` e O O                             ",
"                          < f ^ 7 ) F.gXCXA d j.+XuXAXAXAXAXAXAXAXAXAXAXnXiX].z.X.G - H.b.>.e 7 ! / %                           ",
"                        z Q  X X~ 6 H.NXDXV d ~.`.;XuXCXAXAXAXAXAXAXCXDX*X+X/.m.a.) X K.F.>.0 p l.l.$ ;                         ",
"                        ; / *X*Xi.@ n.MX5XN y.].`.`.+XiXCXAXAXAXAXZXCXiX].~.R.K.l.$.0 ^ c.>.u 9.&Xb.u $                         ",
"                      6Xa A.sXsXi.$ a.MXk ~ U.'.'.].+X+XvXMXMXMXMXMXMX).~./.R.K.z.O.=.O h.2.K XXmXD.O.6 x                       ",
"                      % i.(.fXsXi.* &.bXk ~ /.].].+XDX+X`.].+X+X+X].].].^./.R.P.z.O.=.O h.] H XXMXE.d.} 3 ,X                    ",
"                    @ ..B.dXDXsXV.&.L -X, r./.).).).`.`.`.`.'.'.`.'.].].~./.U.H.z.+.=.O h.] / %XDXZXP.O.' 8 c                   ",
"                    o j.iXMXDXsXB.&.L `., r./.y.M VX`.`.`.`.].'.].].].^./.R.yX{.p 3.w.O u._ ..@XDXAXR.+.=.6 M                   ",
"                    X c.%XvXAXdXB.;.L /.2 r.t.S hXFXa [.~.~.].].).^.^././.d wX6X- y e.O _ ) u.@XDXAXR.g.=.- ,X                  ",
"                    X j.U.sXAXfXS.%.P /., r.^ h ,X,XO j./.~././.^././.E.E.q B M @ 1 XXO _ #.u.@XAXAXU.a.' - V                   ",
"                    X j.E.sXAXfXS.%.J /., ~ t.4 + O O j.R.R.R.R./.R.R.I.K.q O O = s 7XO _ #.X.@XDXAXU.a.7.1                     ",
"                    X c.I.+XdXdX#X:.J ~., ( N.i.4 O a W.P.W.P.K.K.K.K.K.G.^ = - ( e.0XO _ L X.@XCX%XP.d.}.1                     ",
"                    X l.I.R.iXdX@X:.F &XA 9.2.l.i.q H.c.H.4 o @ O O $ d.z.n.p Q 1.}.3X- _ K ..@XmXK.F.+.8Xj                     ",
"                    X l.L.I.iXfXtX3.F SXAXV t 1.g.D.D.% O Q eXeXC.} R $ + / x.d.}.4XO ' $.K ..@XmXK.D.O.9Xl                     ",
"                    X p.b.L.P.U.B.+.} bXCXpXS , OX:.% P o.Z.aXaX.X@.Y U J - G {.1X& ' =.l.$.X.H.P.D.b.;.qXl                     ",
"                    O 2.z.D.H.K.l.) l.mXZXfX9.; - - D  .@..XaXtX.X@.| | Y P 7 < g ; =.=.z.o.X.m.H.b.+.;.0Xb                     ",
"                      w 2.z.D.D.p.e m.uXmXnX$Xd $ I |  .@.S.*X=XZ. .| T Y W F : - ( =.$.z.d.{ u.b.v.;.7XC g                     ",
"                      $ 7.C.n.v.u.6 H.'.fXAXuXA.0 D |  .@.oXyXtXoX|. .T Y W J 7 u =.=.d.n.a.! ] v.l.*.jXj                       ",
"                      $ qX7.+.s.o.6 H.^.nXDXiXQ.u.@ |  .@.aXAXZXZXbX+.T Y W 7 u %.=.=.b.D.a.r r s.%.0.jXl                       ",
"                        + 2X6X` K u H.I.nXDXAXsXH.u.@ U S.dXAXZXAXAXbX .R - * u <.<.M.D.b.a.u 9 *.0.lX&                         ",
"                          < :X<X6 $.D.I.+XfXDXNXsXm./ - K *.*.R R E 5.4.- y ( ' :.Z.vXH.b.X.` t x jXh                           ",
"                            j j = ;.d.H.P.iXCXDXCXiXn.( 9 6 5 5 5 5 6 8 y 6.0.<.|.yX%Xm.a.:.6.y % B                             ",
"                              O ; }.O.b.F.%XfXCXDXAX+XC.G e 0 0 0 0 0 0 ' =.<.e.oXiXb.b.+.;.8.B O #                             ",
"                                h jX;.z.D.K.&XvXCXDXDXS.:.%.=.=.=.,.<.<.=.=.<.rXuXD.b.x.} *.5X:XO                               ",
"                                j zX=.;.z.F.K.U.+XDXDXDXyXe.<.<.<.<.<.<.<.<.rX*Xb.b.v.+.#.q.9X1XX                               ",
"                                  % zXw.:.a.D.K.P./.sXZXSXVXXX<.<.<.,.,.l.n.Q.H.b.v.x.#.` qXm #                                 ",
"                                    j 9Xe.:.d.D.D.K.].@X%X&XtXoXN.N.N.f.m.b.b.b.x.+.%.*.9XC h                                   ",
"                                      n 6X8.:.d.b.D.D.D.K.P.@X+XK.H.H.D.b.v.v.a.:.$.*.9XZ h                                     ",
"                                      O :X6X}.e.d.f.a.v.D.D.D.D.D.b.b.b.x.a.d.:.*.w.7X2X&                                       ",
"                                        X :X0X9Xw.;.;.l.b.D.b.b.b.b.b.v.g.&.;.0.8.9XjX#                                         ",
"                                          X X b kXkX6.*.%.:.:.:.>.:.:.%.*.` qXkX3XX X                                           ",
"                                                < > 3X0X0X0X9XwXwXwX9X0X0XzXn > >                                               ",
"                                                      n n n C >X>XC n n n 1X                                                    ",
"                                                            $ $ # #                                                             ",
"                                                                                                                                ",
"                                                                                                                                ",
"                                                                                                                                ",
"                                                                                                                                ",
"                                                                                                                                ",
"                                                                                                                                ",
"                                                                                                                                ",
"                                                                                                                                ",
"                                                                                                                                ",
"                                                                                                                                "
};
